<svg width="256" height="42" viewBox="0 0 256 42" fill="none" xmlns="http://www.w3.org/2000/svg">
<path d="M58.0498 35.4239V10.7906H68.3559C70.8998 10.7906 72.8968 11.3536 74.347 12.4797C75.7973 13.6058 76.5224 15.1542 76.5224 17.1248C76.5224 18.5794 76.1063 19.811 75.2742 20.8198C74.4659 21.8052 73.301 22.4972 71.7794 22.8961V23.072C73.5625 23.4239 74.9414 24.1277 75.9161 25.1834C76.9147 26.2392 77.4139 27.5412 77.4139 29.0896C77.4139 30.3799 77.0811 31.506 76.4154 32.4679C75.7735 33.4063 74.8463 34.1335 73.6338 34.6497C72.4213 35.1658 71.0068 35.4239 69.3901 35.4239H58.0498ZM68.3916 32.4327C70.1509 32.4327 71.5417 32.0338 72.564 31.2362C73.5863 30.4151 74.0974 29.3124 74.0974 27.9283C74.0974 26.5441 73.5744 25.4532 72.5283 24.6556C71.4822 23.8579 70.1033 23.4591 68.3916 23.4591H61.2593V32.4327H68.3916ZM67.607 22.7553C69.3663 22.7553 70.7571 22.3565 71.7794 21.5588C72.8017 20.7377 73.3129 19.6351 73.3129 18.2509C73.3129 16.8668 72.8017 15.7759 71.7794 14.9782C70.7571 14.1806 69.3663 13.7817 67.607 13.7817H61.2593V22.7553H67.607Z" fill="white"/>
<path d="M83.6118 35.4239V10.7906H86.8213V35.4239H83.6118Z" fill="white"/>
<path d="M101.59 35.4239V13.8521H91.9253V10.7906H114.428V13.8521H104.799V35.4239H101.59Z" fill="white"/>
<path d="M124.88 11.4547H129.356L138.414 34.6804H133.671L131.834 29.6658H122.42L120.548 34.6804H115.787L124.88 11.4547ZM123.882 25.7772H130.372L127.145 16.7685H127.091L123.882 25.7772Z" fill="white"/>
<path d="M148.076 31.5484C148.849 31.5484 149.479 31.4194 149.966 31.1613C150.453 30.9033 150.774 30.7097 150.929 30.5807L153.033 33.6599C152.866 33.7889 152.557 33.9707 152.106 34.2053C151.654 34.4399 151.077 34.6452 150.376 34.8212C149.687 35.0088 148.896 35.1027 148.005 35.1027C146.459 35.1027 145.074 34.7977 143.85 34.1877C142.626 33.566 141.657 32.6863 140.944 31.5484C140.242 30.3989 139.892 29.0323 139.892 27.4488C139.892 25.8535 140.242 24.4869 140.944 23.3491C141.657 22.2113 142.626 21.3374 143.85 20.7274C145.074 20.1174 146.459 19.8124 148.005 19.8124C148.884 19.8124 149.663 19.9063 150.34 20.094C151.03 20.2816 151.606 20.4987 152.07 20.745C152.534 20.9796 152.855 21.1731 153.033 21.3256L150.875 24.4224C150.792 24.3285 150.632 24.1995 150.394 24.0353C150.156 23.8711 149.841 23.7186 149.449 23.5778C149.069 23.4371 148.611 23.3667 148.076 23.3667C147.422 23.3667 146.798 23.5368 146.204 23.8769C145.621 24.2171 145.146 24.6922 144.777 25.3021C144.409 25.9121 144.225 26.6277 144.225 27.4488C144.225 28.2699 144.409 28.9913 144.777 29.613C145.146 30.2229 145.621 30.698 146.204 31.0382C146.798 31.3784 147.422 31.5484 148.076 31.5484Z" fill="white"/>
<path d="M167.097 34.6804V32.1643C166.99 32.4223 166.716 32.786 166.277 33.2552C165.837 33.7244 165.242 34.1525 164.494 34.5396C163.757 34.915 162.889 35.1027 161.89 35.1027C160.488 35.1027 159.245 34.7742 158.164 34.1173C157.082 33.4487 156.232 32.5396 155.614 31.3901C155.008 30.2288 154.705 28.9209 154.705 27.4664C154.705 26.0118 155.008 24.7098 155.614 23.5602C156.232 22.3989 157.082 21.484 158.164 20.8154C159.245 20.1467 160.488 19.8124 161.89 19.8124C162.865 19.8124 163.709 19.9767 164.422 20.3051C165.147 20.6218 165.73 20.9972 166.17 21.4312C166.621 21.8535 166.913 22.2347 167.043 22.5749V20.2347H171.537V34.6804H167.097ZM159.144 27.4664C159.144 28.2757 159.329 28.9913 159.697 29.613C160.066 30.2229 160.553 30.698 161.159 31.0382C161.766 31.3784 162.425 31.5484 163.138 31.5484C163.887 31.5484 164.553 31.3784 165.135 31.0382C165.718 30.6863 166.176 30.2053 166.508 29.5954C166.853 28.9737 167.026 28.264 167.026 27.4664C167.026 26.6687 166.853 25.9649 166.508 25.3549C166.176 24.7332 165.718 24.2464 165.135 23.8945C164.553 23.5426 163.887 23.3667 163.138 23.3667C162.425 23.3667 161.766 23.5426 161.159 23.8945C160.553 24.2347 160.066 24.7156 159.697 25.3373C159.329 25.9473 159.144 26.657 159.144 27.4664Z" fill="white"/>
<path d="M181.602 35.1027C180.212 35.1027 178.987 34.7742 177.929 34.1173C176.883 33.4487 176.063 32.5396 175.469 31.3901C174.886 30.2288 174.595 28.9209 174.595 27.4664C174.595 26.0118 174.886 24.7098 175.469 23.5602C176.063 22.3989 176.883 21.484 177.929 20.8154C178.987 20.1467 180.212 19.8124 181.602 19.8124C182.589 19.8124 183.463 19.9708 184.224 20.2875C184.996 20.6042 185.614 20.9796 186.078 21.4136C186.542 21.8476 186.815 22.2347 186.898 22.5749V10.4694H191.445V34.6804H186.952V32.1643C186.761 32.5748 186.411 33.0088 185.9 33.4663C185.388 33.9238 184.764 34.3109 184.027 34.6276C183.29 34.9443 182.482 35.1027 181.602 35.1027ZM182.886 31.5484C183.647 31.5484 184.331 31.3784 184.937 31.0382C185.543 30.6863 186.019 30.2053 186.363 29.5954C186.72 28.9737 186.898 28.264 186.898 27.4664C186.898 26.6687 186.72 25.9649 186.363 25.3549C186.019 24.7332 185.543 24.2464 184.937 23.8945C184.331 23.5426 183.647 23.3667 182.886 23.3667C182.185 23.3667 181.543 23.5426 180.961 23.8945C180.378 24.2347 179.909 24.7156 179.552 25.3373C179.207 25.9473 179.035 26.657 179.035 27.4664C179.035 28.2757 179.207 28.9913 179.552 29.613C179.909 30.2229 180.378 30.698 180.961 31.0382C181.543 31.3784 182.185 31.5484 182.886 31.5484Z" fill="white"/>
<path d="M198.057 28.4517C198.093 29.1086 198.271 29.6951 198.592 30.2112C198.913 30.7273 199.377 31.132 199.983 31.4253C200.601 31.7185 201.338 31.8652 202.194 31.8652C202.967 31.8652 203.644 31.7713 204.227 31.5836C204.821 31.396 205.32 31.1672 205.725 30.8974C206.141 30.6159 206.45 30.3461 206.652 30.088L208.524 32.8329C208.191 33.2435 207.745 33.6247 207.187 33.9766C206.64 34.3168 205.939 34.5865 205.083 34.786C204.239 34.9971 203.181 35.1027 201.909 35.1027C200.304 35.1027 198.895 34.7918 197.683 34.1701C196.47 33.5484 195.525 32.6511 194.848 31.4781C194.17 30.3051 193.832 28.9092 193.832 27.2904C193.832 25.8828 194.135 24.6159 194.741 23.4898C195.347 22.352 196.227 21.4547 197.38 20.7978C198.545 20.1409 199.942 19.8124 201.57 19.8124C203.104 19.8124 204.429 20.1057 205.546 20.6922C206.676 21.267 207.549 22.1115 208.167 23.2259C208.786 24.3403 209.095 25.701 209.095 27.308C209.095 27.4018 209.089 27.5954 209.077 27.8886C209.077 28.1702 209.065 28.3578 209.041 28.4517H198.057ZM204.851 25.6892C204.839 25.3139 204.72 24.9092 204.494 24.4752C204.28 24.0412 203.942 23.6717 203.478 23.3667C203.014 23.0617 202.396 22.9092 201.624 22.9092C200.851 22.9092 200.215 23.0558 199.716 23.3491C199.228 23.6423 198.86 24.006 198.61 24.44C198.361 24.8623 198.218 25.2787 198.182 25.6892H204.851Z" fill="white"/>
<path d="M231.285 19.8124C232.379 19.8124 233.33 20.0412 234.138 20.4986C234.958 20.9561 235.594 21.6599 236.046 22.6101C236.51 23.5485 236.741 24.7567 236.741 26.2347V34.6804H232.284V26.9561C232.284 25.7362 232.1 24.786 231.731 24.1057C231.374 23.4253 230.691 23.0851 229.68 23.0851C229.11 23.0851 228.587 23.2376 228.111 23.5426C227.636 23.8359 227.255 24.2699 226.97 24.8447C226.697 25.4194 226.56 26.1233 226.56 26.9561V34.6804H222.388V26.9561C222.388 25.7362 222.18 24.786 221.764 24.1057C221.348 23.4253 220.688 23.0851 219.784 23.0851C219.202 23.0851 218.673 23.2318 218.197 23.525C217.734 23.8183 217.365 24.2523 217.092 24.8271C216.83 25.3901 216.7 26.0998 216.7 26.9561V34.6804H212.206V20.2347H216.7V22.3461C216.83 21.9825 217.128 21.6071 217.591 21.2201C218.067 20.833 218.655 20.5045 219.356 20.2347C220.058 19.9532 220.813 19.8124 221.621 19.8124C222.501 19.8124 223.232 19.9591 223.814 20.2523C224.397 20.5456 224.866 20.9209 225.223 21.3784C225.591 21.8242 225.871 22.2934 226.061 22.786C226.227 22.3286 226.554 21.8711 227.042 21.4136C227.529 20.9561 228.141 20.5749 228.878 20.2699C229.615 19.9649 230.417 19.8124 231.285 19.8124Z" fill="white"/>
<path d="M247.192 30.7567L251.524 20.2347H256L245.997 42H241.45L244.82 34.6804L238.74 20.2347H243.269L247.192 30.7567Z" fill="white"/>
<path d="M18.195 1.29931C20.8801 -0.43315 24.3497 -0.433086 27.0348 1.2994L44.4972 12.5668C44.9498 12.8588 45.2241 13.3547 45.2286 13.8882C45.2328 14.4216 44.9666 14.9219 44.5188 15.2209L27.1423 26.8283C24.4079 28.655 20.822 28.655 18.0875 26.8286L3.62253 17.1665C3.45576 17.0551 3.23061 17.173 3.23061 17.3717V26.9714C3.23061 27.8516 2.50741 28.5654 1.61531 28.5654C0.723205 28.5654 0 27.8516 0 26.9714V14.2197C0 14.1741 0.00193611 14.1289 0.00573034 14.0843C0.0071205 14.068 0.0071199 14.0516 0.00572676 14.0352C0.00157932 13.9866 -0.000344487 13.9375 6.47e-05 13.8882C0.00436141 13.3547 0.278866 12.8588 0.731346 12.5668L18.195 1.29931Z" fill="white"/>
<path d="M18.195 1.29931C20.8801 -0.43315 24.3497 -0.433086 27.0348 1.2994L44.4972 12.5668C44.9498 12.8588 45.2241 13.3547 45.2286 13.8882C45.2328 14.4216 44.9666 14.9219 44.5188 15.2209L27.1423 26.8283C24.4079 28.655 20.822 28.655 18.0875 26.8286L3.62253 17.1665C3.45576 17.0551 3.23061 17.173 3.23061 17.3717V26.9714C3.23061 27.8516 2.50741 28.5654 1.61531 28.5654C0.723205 28.5654 0 27.8516 0 26.9714V14.2197C0 14.1741 0.00193611 14.1289 0.00573034 14.0843C0.0071205 14.068 0.0071199 14.0516 0.00572676 14.0352C0.00157932 13.9866 -0.000344487 13.9375 6.47e-05 13.8882C0.00436141 13.3547 0.278866 12.8588 0.731346 12.5668L18.195 1.29931Z" fill="white"/>
<path d="M6.46126 30.1594V23.3793C6.46126 23.1805 6.6864 23.0626 6.85317 23.174L16.2766 29.4685C20.1049 32.0256 25.1251 32.0256 28.9534 29.4682L38.3755 23.1743C38.5422 23.0629 38.7674 23.1808 38.7674 23.3796V30.1594C38.7674 30.5378 38.6311 30.9034 38.3829 31.1916C38.3829 31.1916 38.3829 31.1916 37.1521 30.1594L38.3829 31.1916L38.3784 31.1967L38.3723 31.2041L38.3532 31.2257L38.2909 31.2952C38.2385 31.3526 38.1646 31.4323 38.0696 31.5311C37.8796 31.7285 37.6047 32.0023 37.2483 32.3269C36.537 32.975 35.4948 33.8316 34.1512 34.6869C31.4678 36.3953 27.5325 38.1292 22.6146 38.1292C17.6968 38.1292 13.7613 36.3953 11.0778 34.6869C9.73425 33.8316 8.69203 32.975 7.98048 32.3269C7.62418 32.0023 7.34916 31.7285 7.15917 31.5311C7.06412 31.4326 6.99017 31.3529 6.93784 31.2952L6.87552 31.2257L6.85019 31.1967L6.84774 31.1939L8.07656 30.1594C6.84583 31.1919 6.84774 31.1939 6.84774 31.1939C6.5995 30.9057 6.46126 30.5378 6.46126 30.1594Z" fill="white"/>
<path d="M6.46126 30.1594V23.3793C6.46126 23.1805 6.6864 23.0626 6.85317 23.174L16.2766 29.4685C20.1049 32.0256 25.1251 32.0256 28.9534 29.4682L38.3755 23.1743C38.5422 23.0629 38.7674 23.1808 38.7674 23.3796V30.1594C38.7674 30.5378 38.6311 30.9034 38.3829 31.1916C38.3829 31.1916 38.3829 31.1916 37.1521 30.1594L38.3829 31.1916L38.3784 31.1967L38.3723 31.2041L38.3532 31.2257L38.2909 31.2952C38.2385 31.3526 38.1646 31.4323 38.0696 31.5311C37.8796 31.7285 37.6047 32.0023 37.2483 32.3269C36.537 32.975 35.4948 33.8316 34.1512 34.6869C31.4678 36.3953 27.5325 38.1292 22.6146 38.1292C17.6968 38.1292 13.7613 36.3953 11.0778 34.6869C9.73425 33.8316 8.69203 32.975 7.98048 32.3269C7.62418 32.0023 7.34916 31.7285 7.15917 31.5311C7.06412 31.4326 6.99017 31.3529 6.93784 31.2952L6.87552 31.2257L6.85019 31.1967L6.84774 31.1939L8.07656 30.1594C6.84583 31.1919 6.84774 31.1939 6.84774 31.1939C6.5995 30.9057 6.46126 30.5378 6.46126 30.1594Z" fill="white"/>
</svg>
