<svg width="572" height="208" viewBox="0 0 572 208" fill="none" xmlns="http://www.w3.org/2000/svg">
<path d="M207.08 40V18.24H214.472C215.752 18.24 216.861 18.4747 217.8 18.944C218.739 19.4133 219.464 20.0533 219.976 20.864C220.488 21.6533 220.744 22.5493 220.744 23.552C220.744 24.6187 220.531 25.568 220.104 26.4C219.677 27.2107 219.037 27.808 218.184 28.192C219.016 28.4053 219.752 28.768 220.392 29.28C221.053 29.792 221.565 30.432 221.928 31.2C222.312 31.968 222.504 32.8427 222.504 33.824C222.504 35.04 222.216 36.1173 221.64 37.056C221.085 37.9733 220.296 38.6987 219.272 39.232C218.248 39.744 217.021 40 215.592 40H207.08ZM211.016 36.8H215.176C216.115 36.8 216.904 36.5013 217.544 35.904C218.184 35.2853 218.504 34.5173 218.504 33.6C218.504 33.024 218.355 32.5013 218.056 32.032C217.757 31.5627 217.363 31.1893 216.872 30.912C216.403 30.6133 215.869 30.464 215.272 30.464H211.016V36.8ZM211.016 27.104H213.992C214.803 27.104 215.496 26.848 216.072 26.336C216.669 25.824 216.968 25.1307 216.968 24.256C216.968 23.424 216.669 22.752 216.072 22.24C215.496 21.728 214.728 21.472 213.768 21.472H211.016V27.104ZM232.154 40.288C230.618 40.288 229.242 39.9893 228.026 39.392C226.81 38.7733 225.85 37.92 225.146 36.832C224.463 35.7227 224.122 34.4213 224.122 32.928C224.122 31.4987 224.463 30.2293 225.146 29.12C225.85 28.0107 226.799 27.1467 227.994 26.528C229.188 25.888 230.543 25.568 232.058 25.568C233.444 25.568 234.714 25.8773 235.866 26.496C237.039 27.1147 237.978 27.9787 238.682 29.088C239.386 30.1973 239.738 31.4773 239.738 32.928V33.824H227.322V31.296H235.866C235.78 30.4427 235.386 29.7387 234.682 29.184C233.999 28.6293 233.146 28.352 232.122 28.352C231.268 28.352 230.543 28.5333 229.946 28.896C229.37 29.2373 228.922 29.728 228.602 30.368C228.303 31.008 228.154 31.7547 228.154 32.608C228.154 33.568 228.324 34.4 228.666 35.104C229.007 35.808 229.466 36.352 230.042 36.736C230.639 37.12 231.29 37.312 231.994 37.312C232.655 37.312 233.263 37.2373 233.818 37.088C234.394 36.9173 234.895 36.704 235.322 36.448C235.77 36.1707 236.122 35.872 236.378 35.552L238.746 37.568C238.319 38.08 237.754 38.5493 237.05 38.976C236.367 39.3813 235.599 39.7013 234.746 39.936C233.914 40.1707 233.05 40.288 232.154 40.288ZM242.891 39.968V25.888H246.859V27.776C247.328 27.1147 247.894 26.5813 248.555 26.176C249.216 25.7707 249.974 25.568 250.827 25.568C251.787 25.568 252.64 25.7707 253.387 26.176C254.155 26.5813 254.774 27.2107 255.243 28.064C255.84 27.2107 256.523 26.5813 257.291 26.176C258.08 25.7707 259.008 25.568 260.075 25.568C261.27 25.568 262.251 25.8453 263.019 26.4C263.808 26.9333 264.395 27.68 264.779 28.64C265.184 29.5787 265.387 30.6453 265.387 31.84V39.968H261.451V31.84C261.451 31.3067 261.376 30.816 261.227 30.368C261.078 29.92 260.832 29.568 260.491 29.312C260.171 29.0347 259.712 28.896 259.115 28.896C258.518 28.896 257.995 29.0667 257.547 29.408C257.12 29.728 256.79 30.144 256.555 30.656C256.32 31.168 256.203 31.7013 256.203 32.256V39.968H252.267V31.84C252.267 31.3067 252.192 30.816 252.043 30.368C251.894 29.92 251.648 29.568 251.307 29.312C250.987 29.0347 250.528 28.896 249.931 28.896C249.312 28.896 248.768 29.1093 248.299 29.536C247.851 29.9413 247.499 30.4533 247.243 31.072C247.008 31.6693 246.88 32.2773 246.859 32.896V39.968H242.891ZM267.83 34.08V31.072H278.006V34.08H267.83ZM284.607 40L279.039 25.888H283.071L286.655 36.096L290.239 25.888H294.303L288.735 40H284.607ZM297.025 40V25.888H300.993V40H297.025ZM299.009 23.744C298.348 23.744 297.782 23.52 297.313 23.072C296.865 22.6027 296.641 22.0373 296.641 21.376C296.641 20.736 296.865 20.192 297.313 19.744C297.782 19.2747 298.348 19.04 299.009 19.04C299.649 19.04 300.193 19.2747 300.641 19.744C301.11 20.192 301.345 20.736 301.345 21.376C301.345 22.0373 301.11 22.6027 300.641 23.072C300.193 23.52 299.649 23.744 299.009 23.744ZM305.422 40V25.888H309.39V27.872C309.86 27.1893 310.468 26.6453 311.214 26.24C311.961 25.8133 312.814 25.6 313.774 25.6C314.99 25.6 315.982 25.856 316.75 26.368C317.518 26.8587 318.094 27.5627 318.478 28.48C318.862 29.3973 319.054 30.4853 319.054 31.744V40H315.086V31.744C315.086 31.1893 315.012 30.6987 314.862 30.272C314.713 29.8453 314.468 29.5147 314.126 29.28C313.785 29.0453 313.337 28.928 312.782 28.928C312.057 28.928 311.438 29.1307 310.926 29.536C310.414 29.92 310.03 30.4533 309.774 31.136C309.518 31.7973 309.39 32.5333 309.39 33.344V40H305.422ZM328.659 40.32C327.337 40.32 326.142 39.9787 325.075 39.296C324.03 38.6133 323.209 37.7067 322.611 36.576C322.014 35.4453 321.715 34.24 321.715 32.96C321.715 31.6587 322.014 30.4533 322.611 29.344C323.209 28.2347 324.03 27.328 325.075 26.624C326.142 25.92 327.337 25.568 328.659 25.568C329.641 25.568 330.569 25.7493 331.443 26.112C332.318 26.4747 333.054 27.0507 333.651 27.84V16H337.587V40H333.651V38.08C333.31 38.5707 332.873 38.9867 332.339 39.328C331.806 39.648 331.219 39.8933 330.579 40.064C329.961 40.2347 329.321 40.32 328.659 40.32ZM329.747 37.024C330.494 37.024 331.155 36.832 331.731 36.448C332.329 36.064 332.798 35.5627 333.139 34.944C333.481 34.3253 333.651 33.664 333.651 32.96C333.651 32.2347 333.481 31.5733 333.139 30.976C332.798 30.3573 332.329 29.856 331.731 29.472C331.155 29.088 330.494 28.896 329.747 28.896C329.001 28.896 328.339 29.088 327.763 29.472C327.187 29.856 326.729 30.3573 326.387 30.976C326.046 31.5733 325.875 32.2347 325.875 32.96C325.875 33.664 326.046 34.3253 326.387 34.944C326.729 35.5627 327.187 36.064 327.763 36.448C328.339 36.832 329.001 37.024 329.747 37.024ZM348.841 40.256C347.326 40.256 345.961 39.9573 344.745 39.36C343.529 38.7413 342.569 37.8773 341.865 36.768C341.161 35.6587 340.809 34.3787 340.809 32.928C340.809 31.4987 341.161 30.24 341.865 29.152C342.569 28.0427 343.529 27.168 344.745 26.528C345.961 25.888 347.326 25.568 348.841 25.568C350.356 25.568 351.71 25.888 352.905 26.528C354.121 27.168 355.081 28.0427 355.785 29.152C356.51 30.24 356.873 31.4987 356.873 32.928C356.873 34.3787 356.521 35.6587 355.817 36.768C355.113 37.8773 354.153 38.7413 352.937 39.36C351.721 39.9573 350.356 40.256 348.841 40.256ZM348.841 37.056C349.716 37.056 350.441 36.864 351.017 36.48C351.593 36.0747 352.02 35.5627 352.297 34.944C352.574 34.304 352.713 33.632 352.713 32.928C352.713 32.2027 352.564 31.5307 352.265 30.912C351.988 30.272 351.561 29.76 350.985 29.376C350.43 28.9707 349.716 28.768 348.841 28.768C347.966 28.768 347.241 28.9707 346.665 29.376C346.089 29.76 345.652 30.272 345.353 30.912C345.076 31.5307 344.937 32.2027 344.937 32.928C344.937 33.632 345.076 34.304 345.353 34.944C345.63 35.5627 346.057 36.0747 346.633 36.48C347.23 36.864 347.966 37.056 348.841 37.056ZM360.943 32.96L360.303 18.24H364.463L363.823 32.96H360.943ZM362.383 40.224C361.743 40.224 361.199 40 360.751 39.552C360.303 39.104 360.079 38.5707 360.079 37.952C360.079 37.3333 360.303 36.8 360.751 36.352C361.199 35.8827 361.743 35.648 362.383 35.648C363.002 35.648 363.535 35.872 363.983 36.32C364.453 36.768 364.687 37.312 364.687 37.952C364.687 38.592 364.453 39.136 363.983 39.584C363.535 40.0107 363.002 40.224 362.383 40.224Z" fill="white"/>
<path d="M148.806 109.26C148.046 109.26 147.366 109.187 146.766 109.04C146.18 108.907 145.666 108.7 145.226 108.42C144.8 108.127 144.446 107.767 144.166 107.34C143.886 106.9 143.686 106.393 143.566 105.82H145.226C145.32 106.3 145.506 106.7 145.786 107.02C146.08 107.34 146.473 107.58 146.966 107.74C147.473 107.9 148.086 107.98 148.806 107.98C149.446 107.98 150.033 107.9 150.566 107.74C151.1 107.567 151.526 107.287 151.846 106.9C152.18 106.513 152.346 106 152.346 105.36C152.346 104.92 152.2 104.547 151.906 104.24C151.626 103.92 151.26 103.66 150.806 103.46C150.366 103.247 149.906 103.073 149.426 102.94C148.946 102.793 148.506 102.673 148.106 102.58C147.413 102.42 146.806 102.227 146.286 102C145.766 101.773 145.333 101.513 144.986 101.22C144.64 100.913 144.38 100.58 144.206 100.22C144.033 99.86 143.946 99.46 143.946 99.02C143.946 98.38 144.06 97.82 144.286 97.34C144.526 96.86 144.853 96.46 145.266 96.14C145.68 95.82 146.16 95.5867 146.706 95.44C147.253 95.28 147.833 95.2 148.446 95.2C149.113 95.2 149.706 95.26 150.226 95.38C150.746 95.5 151.2 95.6867 151.586 95.94C151.986 96.18 152.313 96.4867 152.566 96.86C152.833 97.2333 153.026 97.6667 153.146 98.16H151.626C151.493 97.5733 151.16 97.1333 150.626 96.84C150.106 96.5467 149.38 96.4 148.446 96.4C147.886 96.4 147.373 96.48 146.906 96.64C146.44 96.8 146.066 97.0467 145.786 97.38C145.52 97.7133 145.386 98.14 145.386 98.66C145.386 99.1267 145.52 99.52 145.786 99.84C146.053 100.16 146.393 100.42 146.806 100.62C147.22 100.82 147.66 100.987 148.126 101.12C148.606 101.253 149.053 101.373 149.466 101.48C150.053 101.627 150.606 101.8 151.126 102C151.646 102.187 152.106 102.42 152.506 102.7C152.906 102.98 153.22 103.327 153.446 103.74C153.673 104.153 153.786 104.66 153.786 105.26C153.786 105.967 153.646 106.573 153.366 107.08C153.1 107.587 152.726 108 152.246 108.32C151.78 108.64 151.246 108.873 150.646 109.02C150.06 109.18 149.446 109.26 148.806 109.26ZM159.931 109.14C159.051 109.14 158.244 108.953 157.511 108.58C156.791 108.193 156.211 107.66 155.771 106.98C155.331 106.287 155.111 105.48 155.111 104.56C155.111 103.707 155.317 102.933 155.731 102.24C156.144 101.547 156.697 100.993 157.391 100.58C158.084 100.167 158.857 99.96 159.711 99.96C160.537 99.96 161.297 100.167 161.991 100.58C162.684 100.993 163.244 101.54 163.671 102.22C164.097 102.9 164.311 103.653 164.311 104.48V105.04H155.991V103.74H162.831C162.671 103.073 162.297 102.513 161.711 102.06C161.137 101.593 160.471 101.36 159.711 101.36C159.084 101.36 158.531 101.507 158.051 101.8C157.584 102.093 157.217 102.493 156.951 103C156.684 103.493 156.551 104.053 156.551 104.68C156.551 105.293 156.704 105.833 157.011 106.3C157.317 106.753 157.711 107.107 158.191 107.36C158.671 107.613 159.177 107.74 159.711 107.74C160.124 107.74 160.504 107.693 160.851 107.6C161.211 107.507 161.537 107.367 161.831 107.18C162.137 106.993 162.411 106.753 162.651 106.46L163.711 107.34C163.417 107.713 163.057 108.04 162.631 108.32C162.217 108.587 161.777 108.793 161.311 108.94C160.844 109.073 160.384 109.14 159.931 109.14ZM167.258 98.68C167.005 98.68 166.792 98.5933 166.618 98.42C166.445 98.2467 166.358 98.0333 166.358 97.78C166.358 97.54 166.445 97.3333 166.618 97.16C166.792 96.9867 167.005 96.9 167.258 96.9C167.498 96.9 167.705 96.9867 167.878 97.16C168.052 97.3333 168.138 97.54 168.138 97.78C168.138 98.0333 168.052 98.2467 167.878 98.42C167.705 98.5933 167.498 98.68 167.258 98.68ZM165.118 113.86C164.678 113.86 164.232 113.773 163.778 113.6C163.312 113.427 162.892 113.127 162.518 112.7L163.438 111.7C163.598 111.913 163.818 112.1 164.098 112.26C164.365 112.42 164.625 112.5 164.878 112.5C165.385 112.5 165.785 112.333 166.078 112C166.372 111.667 166.518 111.233 166.518 110.7V100.2H167.918V110.68C167.918 111.24 167.798 111.76 167.558 112.24C167.318 112.733 166.985 113.127 166.558 113.42C166.145 113.713 165.665 113.86 165.118 113.86ZM174.705 109.2C173.879 109.2 173.139 108.987 172.485 108.56C171.845 108.12 171.339 107.553 170.965 106.86C170.605 106.153 170.425 105.4 170.425 104.6C170.425 103.787 170.605 103.033 170.965 102.34C171.339 101.647 171.845 101.087 172.485 100.66C173.139 100.22 173.879 100 174.705 100C175.425 100 176.059 100.16 176.605 100.48C177.165 100.787 177.639 101.193 178.025 101.7V100.2H179.425V109H178.025V107.5C177.772 107.833 177.479 108.133 177.145 108.4C176.812 108.653 176.439 108.853 176.025 109C175.625 109.133 175.185 109.2 174.705 109.2ZM174.925 107.8C175.525 107.8 176.059 107.653 176.525 107.36C176.992 107.053 177.359 106.66 177.625 106.18C177.892 105.687 178.025 105.16 178.025 104.6C178.025 104.027 177.892 103.5 177.625 103.02C177.359 102.54 176.992 102.153 176.525 101.86C176.059 101.553 175.525 101.4 174.925 101.4C174.325 101.4 173.792 101.553 173.325 101.86C172.859 102.153 172.492 102.54 172.225 103.02C171.959 103.5 171.825 104.027 171.825 104.6C171.825 105.16 171.959 105.687 172.225 106.18C172.492 106.66 172.859 107.053 173.325 107.36C173.792 107.653 174.325 107.8 174.925 107.8ZM192.345 109.2C191.865 109.2 191.418 109.133 191.005 109C190.605 108.853 190.238 108.653 189.905 108.4C189.585 108.133 189.291 107.833 189.025 107.5V109H187.625V94H189.025V101.7C189.411 101.193 189.878 100.787 190.425 100.48C190.985 100.16 191.625 100 192.345 100C193.171 100 193.905 100.22 194.545 100.66C195.198 101.087 195.705 101.647 196.065 102.34C196.438 103.033 196.625 103.787 196.625 104.6C196.625 105.4 196.438 106.153 196.065 106.86C195.705 107.553 195.198 108.12 194.545 108.56C193.905 108.987 193.171 109.2 192.345 109.2ZM192.125 107.8C192.725 107.8 193.258 107.653 193.725 107.36C194.191 107.053 194.558 106.66 194.825 106.18C195.091 105.687 195.225 105.16 195.225 104.6C195.225 104.027 195.091 103.5 194.825 103.02C194.558 102.54 194.191 102.153 193.725 101.86C193.258 101.553 192.725 101.4 192.125 101.4C191.525 101.4 190.991 101.553 190.525 101.86C190.058 102.153 189.691 102.54 189.425 103.02C189.158 103.5 189.025 104.027 189.025 104.6C189.025 105.16 189.158 105.687 189.425 106.18C189.691 106.66 190.058 107.053 190.525 107.36C190.991 107.653 191.525 107.8 192.125 107.8ZM202.743 109.14C201.863 109.14 201.056 108.953 200.323 108.58C199.603 108.193 199.023 107.66 198.583 106.98C198.143 106.287 197.923 105.48 197.923 104.56C197.923 103.707 198.13 102.933 198.543 102.24C198.956 101.547 199.51 100.993 200.203 100.58C200.896 100.167 201.67 99.96 202.523 99.96C203.35 99.96 204.11 100.167 204.803 100.58C205.496 100.993 206.056 101.54 206.483 102.22C206.91 102.9 207.123 103.653 207.123 104.48V105.04H198.803V103.74H205.643C205.483 103.073 205.11 102.513 204.523 102.06C203.95 101.593 203.283 101.36 202.523 101.36C201.896 101.36 201.343 101.507 200.863 101.8C200.396 102.093 200.03 102.493 199.763 103C199.496 103.493 199.363 104.053 199.363 104.68C199.363 105.293 199.516 105.833 199.823 106.3C200.13 106.753 200.523 107.107 201.003 107.36C201.483 107.613 201.99 107.74 202.523 107.74C202.936 107.74 203.316 107.693 203.663 107.6C204.023 107.507 204.35 107.367 204.643 107.18C204.95 106.993 205.223 106.753 205.463 106.46L206.523 107.34C206.23 107.713 205.87 108.04 205.443 108.32C205.03 108.587 204.59 108.793 204.123 108.94C203.656 109.073 203.196 109.14 202.743 109.14ZM209.324 108.96V100.16H210.724V101.56C210.99 101.107 211.337 100.727 211.764 100.42C212.19 100.113 212.71 99.96 213.324 99.96C213.99 99.96 214.557 100.1 215.024 100.38C215.49 100.647 215.85 101.067 216.104 101.64C216.37 101.16 216.724 100.76 217.164 100.44C217.604 100.12 218.13 99.96 218.744 99.96C219.424 99.96 219.997 100.1 220.464 100.38C220.93 100.66 221.284 101.06 221.524 101.58C221.764 102.1 221.884 102.727 221.884 103.46V108.96H220.484V103.46C220.484 103.047 220.424 102.687 220.304 102.38C220.184 102.06 219.99 101.813 219.724 101.64C219.47 101.453 219.13 101.36 218.704 101.36C218.344 101.36 217.99 101.46 217.644 101.66C217.31 101.847 217.03 102.1 216.804 102.42C216.577 102.727 216.464 103.073 216.464 103.46V108.96H215.064V103.46C215.064 103.047 215.004 102.687 214.884 102.38C214.764 102.06 214.57 101.813 214.304 101.64C214.05 101.453 213.71 101.36 213.284 101.36C212.79 101.36 212.357 101.507 211.984 101.8C211.624 102.093 211.337 102.473 211.124 102.94C210.91 103.407 210.777 103.913 210.724 104.46V108.96H209.324ZM223.84 105.12V103.96H230.54V105.12H223.84ZM235.203 109.02L231.483 100.2H233.003L235.543 106.74L238.063 100.2H239.583L235.883 109.02H235.203ZM241.379 109V100.2H242.779V109H241.379ZM242.079 98.68C241.826 98.68 241.613 98.5933 241.439 98.42C241.266 98.2467 241.179 98.0333 241.179 97.78C241.179 97.54 241.266 97.3333 241.439 97.16C241.613 96.9867 241.826 96.9 242.079 96.9C242.319 96.9 242.526 96.9867 242.699 97.16C242.873 97.3333 242.959 97.54 242.959 97.78C242.959 98.0333 242.873 98.2467 242.699 98.42C242.526 98.5933 242.319 98.68 242.079 98.68ZM245.75 109V100.2H247.15V101.72C247.43 101.24 247.81 100.84 248.29 100.52C248.77 100.187 249.336 100.02 249.99 100.02C250.683 100.02 251.27 100.16 251.75 100.44C252.23 100.707 252.596 101.1 252.85 101.62C253.103 102.127 253.23 102.753 253.23 103.5V109H251.83V103.5C251.83 103.153 251.776 102.82 251.67 102.5C251.576 102.18 251.403 101.92 251.15 101.72C250.91 101.52 250.576 101.42 250.15 101.42C249.43 101.42 248.85 101.593 248.41 101.94C247.97 102.287 247.65 102.76 247.45 103.36C247.25 103.947 247.15 104.6 247.15 105.32V109H245.75ZM259.508 109.2C258.681 109.2 257.941 108.987 257.288 108.56C256.648 108.12 256.141 107.553 255.768 106.86C255.408 106.153 255.228 105.4 255.228 104.6C255.228 103.787 255.408 103.033 255.768 102.34C256.141 101.647 256.648 101.087 257.288 100.66C257.941 100.22 258.681 100 259.508 100C260.228 100 260.874 100.147 261.448 100.44C262.021 100.733 262.481 101.153 262.828 101.7V94H264.228V109H262.828V107.5C262.574 107.833 262.281 108.133 261.948 108.4C261.614 108.653 261.241 108.853 260.828 109C260.428 109.133 259.988 109.2 259.508 109.2ZM259.728 107.8C260.328 107.8 260.861 107.653 261.328 107.36C261.794 107.053 262.161 106.66 262.428 106.18C262.694 105.687 262.828 105.16 262.828 104.6C262.828 104.027 262.694 103.5 262.428 103.02C262.161 102.54 261.794 102.153 261.328 101.86C260.861 101.553 260.328 101.4 259.728 101.4C259.128 101.4 258.594 101.553 258.128 101.86C257.661 102.153 257.294 102.54 257.028 103.02C256.761 103.5 256.628 104.027 256.628 104.6C256.628 105.16 256.761 105.687 257.028 106.18C257.294 106.66 257.661 107.053 258.128 107.36C258.594 107.653 259.128 107.8 259.728 107.8ZM271.019 109.14C270.179 109.14 269.406 108.94 268.699 108.54C268.006 108.127 267.452 107.573 267.039 106.88C266.626 106.187 266.419 105.413 266.419 104.56C266.419 103.707 266.626 102.933 267.039 102.24C267.452 101.547 268.006 100.993 268.699 100.58C269.392 100.167 270.166 99.96 271.019 99.96C271.872 99.96 272.646 100.167 273.339 100.58C274.032 100.993 274.586 101.547 274.999 102.24C275.412 102.933 275.619 103.707 275.619 104.56C275.619 105.413 275.412 106.187 274.999 106.88C274.586 107.573 274.026 108.127 273.319 108.54C272.626 108.94 271.859 109.14 271.019 109.14ZM271.019 107.74C271.606 107.74 272.139 107.6 272.619 107.32C273.112 107.027 273.499 106.64 273.779 106.16C274.072 105.68 274.219 105.147 274.219 104.56C274.219 103.96 274.072 103.42 273.779 102.94C273.499 102.46 273.119 102.08 272.639 101.8C272.159 101.507 271.619 101.36 271.019 101.36C270.432 101.36 269.892 101.507 269.399 101.8C268.919 102.08 268.532 102.46 268.239 102.94C267.959 103.42 267.819 103.96 267.819 104.56C267.819 105.147 267.959 105.68 268.239 106.16C268.532 106.64 268.919 107.027 269.399 107.32C269.892 107.6 270.432 107.74 271.019 107.74ZM286.991 109.2C286.164 109.2 285.424 108.987 284.771 108.56C284.131 108.12 283.624 107.553 283.251 106.86C282.891 106.153 282.711 105.4 282.711 104.6C282.711 103.787 282.891 103.033 283.251 102.34C283.624 101.647 284.131 101.087 284.771 100.66C285.424 100.22 286.164 100 286.991 100C287.711 100 288.344 100.16 288.891 100.48C289.451 100.787 289.924 101.193 290.311 101.7V100.2H291.711V109H290.311V107.5C290.057 107.833 289.764 108.133 289.431 108.4C289.097 108.653 288.724 108.853 288.311 109C287.911 109.133 287.471 109.2 286.991 109.2ZM287.211 107.8C287.811 107.8 288.344 107.653 288.811 107.36C289.277 107.053 289.644 106.66 289.911 106.18C290.177 105.687 290.311 105.16 290.311 104.6C290.311 104.027 290.177 103.5 289.911 103.02C289.644 102.54 289.277 102.153 288.811 101.86C288.344 101.553 287.811 101.4 287.211 101.4C286.611 101.4 286.077 101.553 285.611 101.86C285.144 102.153 284.777 102.54 284.511 103.02C284.244 103.5 284.111 104.027 284.111 104.6C284.111 105.16 284.244 105.687 284.511 106.18C284.777 106.66 285.144 107.053 285.611 107.36C286.077 107.653 286.611 107.8 287.211 107.8ZM298.519 109.14C297.679 109.14 296.906 108.94 296.199 108.54C295.506 108.127 294.952 107.573 294.539 106.88C294.126 106.187 293.919 105.413 293.919 104.56C293.919 103.707 294.126 102.933 294.539 102.24C294.952 101.547 295.506 100.993 296.199 100.58C296.892 100.167 297.666 99.96 298.519 99.96C299.372 99.96 300.146 100.167 300.839 100.58C301.532 100.993 302.086 101.547 302.499 102.24C302.912 102.933 303.119 103.707 303.119 104.56C303.119 105.413 302.912 106.187 302.499 106.88C302.086 107.573 301.526 108.127 300.819 108.54C300.126 108.94 299.359 109.14 298.519 109.14ZM298.519 107.74C299.106 107.74 299.639 107.6 300.119 107.32C300.612 107.027 300.999 106.64 301.279 106.16C301.572 105.68 301.719 105.147 301.719 104.56C301.719 103.96 301.572 103.42 301.279 102.94C300.999 102.46 300.619 102.08 300.139 101.8C299.659 101.507 299.119 101.36 298.519 101.36C297.932 101.36 297.392 101.507 296.899 101.8C296.419 102.08 296.032 102.46 295.739 102.94C295.459 103.42 295.319 103.96 295.319 104.56C295.319 105.147 295.459 105.68 295.739 106.16C296.032 106.64 296.419 107.027 296.899 107.32C297.392 107.6 297.932 107.74 298.519 107.74ZM310.611 109V95.4H315.231C316.031 95.4 316.724 95.5467 317.311 95.84C317.897 96.1333 318.351 96.5333 318.671 97.04C318.991 97.5333 319.151 98.0933 319.151 98.72C319.151 99.3867 319.017 99.98 318.751 100.5C318.484 101.007 318.084 101.38 317.551 101.62C318.071 101.753 318.531 101.98 318.931 102.3C319.344 102.62 319.664 103.02 319.891 103.5C320.131 103.98 320.251 104.527 320.251 105.14C320.251 105.9 320.071 106.573 319.711 107.16C319.364 107.733 318.871 108.187 318.231 108.52C317.591 108.84 316.824 109 315.931 109H310.611ZM313.071 107H315.671C316.257 107 316.751 106.813 317.151 106.44C317.551 106.053 317.751 105.573 317.751 105C317.751 104.64 317.657 104.313 317.471 104.02C317.284 103.727 317.037 103.493 316.731 103.32C316.437 103.133 316.104 103.04 315.731 103.04H313.071V107ZM313.071 100.94H314.931C315.437 100.94 315.871 100.78 316.231 100.46C316.604 100.14 316.791 99.7067 316.791 99.16C316.791 98.64 316.604 98.22 316.231 97.9C315.871 97.58 315.391 97.42 314.791 97.42H313.071V100.94ZM321.657 109V106.76H323.237V97.64H321.657V95.4H327.257V97.64H325.697V106.76H327.257V109H321.657ZM332.677 108.98V97.64H328.597V95.38H339.237V97.64H335.157V108.98H332.677ZM426.502 109.2C426.208 109.2 425.942 109.087 425.702 108.86C425.462 108.633 425.342 108.373 425.342 108.08C425.342 107.76 425.455 107.493 425.682 107.28C425.908 107.053 426.182 106.94 426.502 106.94C426.835 106.94 427.115 107.047 427.342 107.26C427.568 107.473 427.682 107.74 427.682 108.06C427.682 108.38 427.562 108.653 427.322 108.88C427.082 109.093 426.808 109.2 426.502 109.2ZM107.634 133.26C106.874 133.26 106.194 133.187 105.594 133.04C105.008 132.907 104.494 132.7 104.054 132.42C103.628 132.127 103.274 131.767 102.994 131.34C102.714 130.9 102.514 130.393 102.394 129.82H104.054C104.148 130.3 104.334 130.7 104.614 131.02C104.908 131.34 105.301 131.58 105.794 131.74C106.301 131.9 106.914 131.98 107.634 131.98C108.274 131.98 108.861 131.9 109.394 131.74C109.928 131.567 110.354 131.287 110.674 130.9C111.008 130.513 111.174 130 111.174 129.36C111.174 128.92 111.028 128.547 110.734 128.24C110.454 127.92 110.088 127.66 109.634 127.46C109.194 127.247 108.734 127.073 108.254 126.94C107.774 126.793 107.334 126.673 106.934 126.58C106.241 126.42 105.634 126.227 105.114 126C104.594 125.773 104.161 125.513 103.814 125.22C103.468 124.913 103.208 124.58 103.034 124.22C102.861 123.86 102.774 123.46 102.774 123.02C102.774 122.38 102.888 121.82 103.114 121.34C103.354 120.86 103.681 120.46 104.094 120.14C104.508 119.82 104.988 119.587 105.534 119.44C106.081 119.28 106.661 119.2 107.274 119.2C107.941 119.2 108.534 119.26 109.054 119.38C109.574 119.5 110.028 119.687 110.414 119.94C110.814 120.18 111.141 120.487 111.394 120.86C111.661 121.233 111.854 121.667 111.974 122.16H110.454C110.321 121.573 109.988 121.133 109.454 120.84C108.934 120.547 108.208 120.4 107.274 120.4C106.714 120.4 106.201 120.48 105.734 120.64C105.268 120.8 104.894 121.047 104.614 121.38C104.348 121.713 104.214 122.14 104.214 122.66C104.214 123.127 104.348 123.52 104.614 123.84C104.881 124.16 105.221 124.42 105.634 124.62C106.048 124.82 106.488 124.987 106.954 125.12C107.434 125.253 107.881 125.373 108.294 125.48C108.881 125.627 109.434 125.8 109.954 126C110.474 126.187 110.934 126.42 111.334 126.7C111.734 126.98 112.048 127.327 112.274 127.74C112.501 128.153 112.614 128.66 112.614 129.26C112.614 129.967 112.474 130.573 112.194 131.08C111.928 131.587 111.554 132 111.074 132.32C110.608 132.64 110.074 132.873 109.474 133.02C108.888 133.18 108.274 133.26 107.634 133.26ZM118.759 133.14C117.879 133.14 117.072 132.953 116.339 132.58C115.619 132.193 115.039 131.66 114.599 130.98C114.159 130.287 113.939 129.48 113.939 128.56C113.939 127.707 114.145 126.933 114.559 126.24C114.972 125.547 115.525 124.993 116.219 124.58C116.912 124.167 117.685 123.96 118.539 123.96C119.365 123.96 120.125 124.167 120.819 124.58C121.512 124.993 122.072 125.54 122.499 126.22C122.925 126.9 123.139 127.653 123.139 128.48V129.04H114.819V127.74H121.659C121.499 127.073 121.125 126.513 120.539 126.06C119.965 125.593 119.299 125.36 118.539 125.36C117.912 125.36 117.359 125.507 116.879 125.8C116.412 126.093 116.045 126.493 115.779 127C115.512 127.493 115.379 128.053 115.379 128.68C115.379 129.293 115.532 129.833 115.839 130.3C116.145 130.753 116.539 131.107 117.019 131.36C117.499 131.613 118.005 131.74 118.539 131.74C118.952 131.74 119.332 131.693 119.679 131.6C120.039 131.507 120.365 131.367 120.659 131.18C120.965 130.993 121.239 130.753 121.479 130.46L122.539 131.34C122.245 131.713 121.885 132.04 121.459 132.32C121.045 132.587 120.605 132.793 120.139 132.94C119.672 133.073 119.212 133.14 118.759 133.14ZM125.439 133V118H126.839V133H125.439ZM133.954 133.14C133.074 133.14 132.267 132.953 131.534 132.58C130.814 132.193 130.234 131.66 129.794 130.98C129.354 130.287 129.134 129.48 129.134 128.56C129.134 127.707 129.341 126.933 129.754 126.24C130.167 125.547 130.721 124.993 131.414 124.58C132.107 124.167 132.881 123.96 133.734 123.96C134.561 123.96 135.321 124.167 136.014 124.58C136.707 124.993 137.267 125.54 137.694 126.22C138.121 126.9 138.334 127.653 138.334 128.48V129.04H130.014V127.74H136.854C136.694 127.073 136.321 126.513 135.734 126.06C135.161 125.593 134.494 125.36 133.734 125.36C133.107 125.36 132.554 125.507 132.074 125.8C131.607 126.093 131.241 126.493 130.974 127C130.707 127.493 130.574 128.053 130.574 128.68C130.574 129.293 130.727 129.833 131.034 130.3C131.341 130.753 131.734 131.107 132.214 131.36C132.694 131.613 133.201 131.74 133.734 131.74C134.147 131.74 134.527 131.693 134.874 131.6C135.234 131.507 135.561 131.367 135.854 131.18C136.161 130.993 136.434 130.753 136.674 130.46L137.734 131.34C137.441 131.713 137.081 132.04 136.654 132.32C136.241 132.587 135.801 132.793 135.334 132.94C134.867 133.073 134.407 133.14 133.954 133.14ZM144.119 133.2C143.586 133.2 143.059 133.087 142.539 132.86C142.019 132.633 141.546 132.32 141.119 131.92C140.706 131.507 140.373 131.02 140.119 130.46C139.866 129.9 139.739 129.28 139.739 128.6C139.739 127.76 139.939 126.993 140.339 126.3C140.739 125.607 141.279 125.053 141.959 124.64C142.639 124.227 143.399 124.02 144.239 124.02C144.893 124.02 145.506 124.153 146.079 124.42C146.666 124.687 147.179 125.073 147.619 125.58C148.059 126.073 148.373 126.667 148.559 127.36H147.039C146.799 126.787 146.426 126.333 145.919 126C145.413 125.653 144.899 125.48 144.379 125.48C143.806 125.48 143.273 125.613 142.779 125.88C142.299 126.133 141.913 126.493 141.619 126.96C141.326 127.427 141.179 127.973 141.179 128.6C141.179 129.16 141.313 129.68 141.579 130.16C141.846 130.64 142.213 131.027 142.679 131.32C143.146 131.6 143.666 131.74 144.239 131.74C144.799 131.74 145.313 131.593 145.779 131.3C146.259 131.007 146.633 130.613 146.899 130.12H148.479C148.253 130.773 147.919 131.333 147.479 131.8C147.039 132.253 146.533 132.6 145.959 132.84C145.386 133.08 144.773 133.2 144.119 133.2ZM150.774 133V124.2H152.174V133H150.774ZM151.474 122.68C151.22 122.68 151.007 122.593 150.834 122.42C150.66 122.247 150.574 122.033 150.574 121.78C150.574 121.54 150.66 121.333 150.834 121.16C151.007 120.987 151.22 120.9 151.474 120.9C151.714 120.9 151.92 120.987 152.094 121.16C152.267 121.333 152.354 121.54 152.354 121.78C152.354 122.033 152.267 122.247 152.094 122.42C151.92 122.593 151.714 122.68 151.474 122.68ZM158.949 133.14C158.109 133.14 157.335 132.94 156.629 132.54C155.935 132.127 155.382 131.573 154.969 130.88C154.555 130.187 154.349 129.413 154.349 128.56C154.349 127.707 154.555 126.933 154.969 126.24C155.382 125.547 155.935 124.993 156.629 124.58C157.322 124.167 158.095 123.96 158.949 123.96C159.802 123.96 160.575 124.167 161.269 124.58C161.962 124.993 162.515 125.547 162.929 126.24C163.342 126.933 163.549 127.707 163.549 128.56C163.549 129.413 163.342 130.187 162.929 130.88C162.515 131.573 161.955 132.127 161.249 132.54C160.555 132.94 159.789 133.14 158.949 133.14ZM158.949 131.74C159.535 131.74 160.069 131.6 160.549 131.32C161.042 131.027 161.429 130.64 161.709 130.16C162.002 129.68 162.149 129.147 162.149 128.56C162.149 127.96 162.002 127.42 161.709 126.94C161.429 126.46 161.049 126.08 160.569 125.8C160.089 125.507 159.549 125.36 158.949 125.36C158.362 125.36 157.822 125.507 157.329 125.8C156.849 126.08 156.462 126.46 156.169 126.94C155.889 127.42 155.749 127.96 155.749 128.56C155.749 129.147 155.889 129.68 156.169 130.16C156.462 130.64 156.849 131.027 157.329 131.32C157.822 131.6 158.362 131.74 158.949 131.74ZM165.75 133V124.2H167.15V125.72C167.43 125.24 167.81 124.84 168.29 124.52C168.77 124.187 169.336 124.02 169.99 124.02C170.683 124.02 171.27 124.16 171.75 124.44C172.23 124.707 172.596 125.1 172.85 125.62C173.103 126.127 173.23 126.753 173.23 127.5V133H171.83V127.5C171.83 127.153 171.776 126.82 171.67 126.5C171.576 126.18 171.403 125.92 171.15 125.72C170.91 125.52 170.576 125.42 170.15 125.42C169.43 125.42 168.85 125.593 168.41 125.94C167.97 126.287 167.65 126.76 167.45 127.36C167.25 127.947 167.15 128.6 167.15 129.32V133H165.75ZM180.048 133.14C179.168 133.14 178.361 132.953 177.628 132.58C176.908 132.193 176.328 131.66 175.888 130.98C175.448 130.287 175.228 129.48 175.228 128.56C175.228 127.707 175.434 126.933 175.848 126.24C176.261 125.547 176.814 124.993 177.508 124.58C178.201 124.167 178.974 123.96 179.828 123.96C180.654 123.96 181.414 124.167 182.108 124.58C182.801 124.993 183.361 125.54 183.788 126.22C184.214 126.9 184.428 127.653 184.428 128.48V129.04H176.108V127.74H182.948C182.788 127.073 182.414 126.513 181.828 126.06C181.254 125.593 180.588 125.36 179.828 125.36C179.201 125.36 178.648 125.507 178.168 125.8C177.701 126.093 177.334 126.493 177.068 127C176.801 127.493 176.668 128.053 176.668 128.68C176.668 129.293 176.821 129.833 177.128 130.3C177.434 130.753 177.828 131.107 178.308 131.36C178.788 131.613 179.294 131.74 179.828 131.74C180.241 131.74 180.621 131.693 180.968 131.6C181.328 131.507 181.654 131.367 181.948 131.18C182.254 130.993 182.528 130.753 182.768 130.46L183.828 131.34C183.534 131.713 183.174 132.04 182.748 132.32C182.334 132.587 181.894 132.793 181.428 132.94C180.961 133.073 180.501 133.14 180.048 133.14ZM195.159 133.18C194.466 133.18 193.886 133.027 193.419 132.72C192.952 132.4 192.599 131.98 192.359 131.46C192.132 130.94 192.019 130.353 192.019 129.7V124.2H193.419V129.7C193.419 130.047 193.466 130.38 193.559 130.7C193.666 131.02 193.839 131.28 194.079 131.48C194.332 131.68 194.672 131.78 195.099 131.78C195.886 131.78 196.492 131.607 196.919 131.26C197.359 130.913 197.666 130.447 197.839 129.86C198.012 129.26 198.099 128.6 198.099 127.88V124.2H199.499V133H198.099V131.5C197.766 132.06 197.352 132.48 196.859 132.76C196.379 133.04 195.812 133.18 195.159 133.18ZM202.097 132.96V124.16H203.497V125.56C203.764 125.107 204.111 124.727 204.537 124.42C204.964 124.113 205.484 123.96 206.097 123.96C206.764 123.96 207.331 124.1 207.797 124.38C208.264 124.647 208.624 125.067 208.877 125.64C209.144 125.16 209.497 124.76 209.937 124.44C210.377 124.12 210.904 123.96 211.517 123.96C212.197 123.96 212.771 124.1 213.237 124.38C213.704 124.66 214.057 125.06 214.297 125.58C214.537 126.1 214.657 126.727 214.657 127.46V132.96H213.257V127.46C213.257 127.047 213.197 126.687 213.077 126.38C212.957 126.06 212.764 125.813 212.497 125.64C212.244 125.453 211.904 125.36 211.477 125.36C211.117 125.36 210.764 125.46 210.417 125.66C210.084 125.847 209.804 126.1 209.577 126.42C209.351 126.727 209.237 127.073 209.237 127.46V132.96H207.837V127.46C207.837 127.047 207.777 126.687 207.657 126.38C207.537 126.06 207.344 125.813 207.077 125.64C206.824 125.453 206.484 125.36 206.057 125.36C205.564 125.36 205.131 125.507 204.757 125.8C204.397 126.093 204.111 126.473 203.897 126.94C203.684 127.407 203.551 127.913 203.497 128.46V132.96H202.097ZM221.034 133.2C220.207 133.2 219.467 132.987 218.814 132.56C218.174 132.12 217.667 131.553 217.294 130.86C216.934 130.153 216.754 129.4 216.754 128.6C216.754 127.787 216.934 127.033 217.294 126.34C217.667 125.647 218.174 125.087 218.814 124.66C219.467 124.22 220.207 124 221.034 124C221.754 124 222.387 124.16 222.934 124.48C223.494 124.787 223.967 125.193 224.354 125.7V124.2H225.754V133H224.354V131.5C224.1 131.833 223.807 132.133 223.474 132.4C223.14 132.653 222.767 132.853 222.354 133C221.954 133.133 221.514 133.2 221.034 133.2ZM221.254 131.8C221.854 131.8 222.387 131.653 222.854 131.36C223.32 131.053 223.687 130.66 223.954 130.18C224.22 129.687 224.354 129.16 224.354 128.6C224.354 128.027 224.22 127.5 223.954 127.02C223.687 126.54 223.32 126.153 222.854 125.86C222.387 125.553 221.854 125.4 221.254 125.4C220.654 125.4 220.12 125.553 219.654 125.86C219.187 126.153 218.82 126.54 218.554 127.02C218.287 127.5 218.154 128.027 218.154 128.6C218.154 129.16 218.287 129.687 218.554 130.18C218.82 130.66 219.187 131.053 219.654 131.36C220.12 131.653 220.654 131.8 221.254 131.8ZM237.953 133.14C237.113 133.14 236.339 132.94 235.633 132.54C234.939 132.127 234.386 131.573 233.973 130.88C233.559 130.187 233.353 129.413 233.353 128.56C233.353 127.707 233.559 126.933 233.973 126.24C234.386 125.547 234.939 124.993 235.633 124.58C236.326 124.167 237.099 123.96 237.953 123.96C238.806 123.96 239.579 124.167 240.273 124.58C240.966 124.993 241.519 125.547 241.933 126.24C242.346 126.933 242.553 127.707 242.553 128.56C242.553 129.413 242.346 130.187 241.933 130.88C241.519 131.573 240.959 132.127 240.253 132.54C239.559 132.94 238.793 133.14 237.953 133.14ZM237.953 131.74C238.539 131.74 239.073 131.6 239.553 131.32C240.046 131.027 240.433 130.64 240.713 130.16C241.006 129.68 241.153 129.147 241.153 128.56C241.153 127.96 241.006 127.42 240.713 126.94C240.433 126.46 240.053 126.08 239.573 125.8C239.093 125.507 238.553 125.36 237.953 125.36C237.366 125.36 236.826 125.507 236.333 125.8C235.853 126.08 235.466 126.46 235.173 126.94C234.893 127.42 234.753 127.96 234.753 128.56C234.753 129.147 234.893 129.68 235.173 130.16C235.466 130.64 235.853 131.027 236.333 131.32C236.826 131.6 237.366 131.74 237.953 131.74ZM244.754 138V124.2H246.154V125.7C246.54 125.193 247.007 124.787 247.554 124.48C248.114 124.16 248.754 124 249.474 124C250.3 124 251.034 124.22 251.674 124.66C252.327 125.087 252.834 125.647 253.194 126.34C253.567 127.033 253.754 127.787 253.754 128.6C253.754 129.4 253.567 130.153 253.194 130.86C252.834 131.553 252.327 132.12 251.674 132.56C251.034 132.987 250.3 133.2 249.474 133.2C248.994 133.2 248.547 133.133 248.134 133C247.734 132.853 247.367 132.653 247.034 132.4C246.714 132.133 246.42 131.833 246.154 131.5V138H244.754ZM249.254 131.8C249.854 131.8 250.387 131.653 250.854 131.36C251.32 131.053 251.687 130.66 251.954 130.18C252.22 129.687 252.354 129.16 252.354 128.6C252.354 128.027 252.22 127.5 251.954 127.02C251.687 126.54 251.32 126.153 250.854 125.86C250.387 125.553 249.854 125.4 249.254 125.4C248.654 125.4 248.12 125.553 247.654 125.86C247.187 126.153 246.82 126.54 246.554 127.02C246.287 127.5 246.154 128.027 246.154 128.6C246.154 129.16 246.287 129.687 246.554 130.18C246.82 130.66 247.187 131.053 247.654 131.36C248.12 131.653 248.654 131.8 249.254 131.8ZM259.725 133.2C259.192 133.2 258.665 133.087 258.145 132.86C257.625 132.633 257.152 132.32 256.725 131.92C256.312 131.507 255.978 131.02 255.725 130.46C255.472 129.9 255.345 129.28 255.345 128.6C255.345 127.76 255.545 126.993 255.945 126.3C256.345 125.607 256.885 125.053 257.565 124.64C258.245 124.227 259.005 124.02 259.845 124.02C260.498 124.02 261.112 124.153 261.685 124.42C262.272 124.687 262.785 125.073 263.225 125.58C263.665 126.073 263.978 126.667 264.165 127.36H262.645C262.405 126.787 262.032 126.333 261.525 126C261.018 125.653 260.505 125.48 259.985 125.48C259.412 125.48 258.878 125.613 258.385 125.88C257.905 126.133 257.518 126.493 257.225 126.96C256.932 127.427 256.785 127.973 256.785 128.6C256.785 129.16 256.918 129.68 257.185 130.16C257.452 130.64 257.818 131.027 258.285 131.32C258.752 131.6 259.272 131.74 259.845 131.74C260.405 131.74 260.918 131.593 261.385 131.3C261.865 131.007 262.238 130.613 262.505 130.12H264.085C263.858 130.773 263.525 131.333 263.085 131.8C262.645 132.253 262.138 132.6 261.565 132.84C260.992 133.08 260.378 133.2 259.725 133.2ZM257.145 137.84L257.645 136.8C257.938 136.893 258.225 136.967 258.505 137.02C258.798 137.087 259.078 137.12 259.345 137.12C259.785 137.12 260.158 137.047 260.465 136.9C260.785 136.753 260.945 136.473 260.945 136.06C260.945 135.753 260.812 135.513 260.545 135.34C260.292 135.18 259.985 135.1 259.625 135.1C259.398 135.1 259.165 135.12 258.925 135.16C258.685 135.213 258.458 135.253 258.245 135.28L259.565 132.36L260.685 132.34L259.825 134.14C259.838 134.127 260.012 134.12 260.345 134.12C260.772 134.12 261.165 134.287 261.525 134.62C261.885 134.967 262.065 135.453 262.065 136.08C262.065 136.6 261.925 137.02 261.645 137.34C261.378 137.66 261.038 137.893 260.625 138.04C260.212 138.187 259.785 138.26 259.345 138.26C258.998 138.26 258.632 138.22 258.245 138.14C257.858 138.073 257.492 137.973 257.145 137.84ZM270.155 133.2C269.328 133.2 268.588 132.987 267.935 132.56C267.295 132.12 266.788 131.553 266.415 130.86C266.055 130.153 265.875 129.4 265.875 128.6C265.875 127.787 266.055 127.033 266.415 126.34C266.788 125.647 267.295 125.087 267.935 124.66C268.588 124.22 269.328 124 270.155 124C270.875 124 271.508 124.16 272.055 124.48C272.615 124.787 273.088 125.193 273.475 125.7V124.2H274.875V133H273.475V131.5C273.221 131.833 272.928 132.133 272.595 132.4C272.261 132.653 271.888 132.853 271.475 133C271.075 133.133 270.635 133.2 270.155 133.2ZM270.375 131.8C270.975 131.8 271.508 131.653 271.975 131.36C272.441 131.053 272.808 130.66 273.075 130.18C273.341 129.687 273.475 129.16 273.475 128.6C273.475 128.027 273.341 127.5 273.075 127.02C272.808 126.54 272.441 126.153 271.975 125.86C271.508 125.553 270.975 125.4 270.375 125.4C269.775 125.4 269.241 125.553 268.775 125.86C268.308 126.153 267.941 126.54 267.675 127.02C267.408 127.5 267.275 128.027 267.275 128.6C267.275 129.16 267.408 129.687 267.675 130.18C267.941 130.66 268.308 131.053 268.775 131.36C269.241 131.653 269.775 131.8 270.375 131.8ZM271.855 123.2C271.535 123.2 271.228 123.12 270.935 122.96C270.655 122.8 270.388 122.613 270.135 122.4C269.895 122.173 269.668 121.98 269.455 121.82C269.241 121.66 269.055 121.58 268.895 121.58C268.681 121.58 268.515 121.66 268.395 121.82C268.275 121.967 268.195 122.147 268.155 122.36C268.115 122.573 268.101 122.773 268.115 122.96H267.135C267.121 122.48 267.181 122.053 267.315 121.68C267.461 121.307 267.675 121.013 267.955 120.8C268.248 120.587 268.608 120.48 269.035 120.48C269.381 120.48 269.695 120.56 269.975 120.72C270.268 120.88 270.535 121.067 270.775 121.28C271.028 121.493 271.248 121.68 271.435 121.84C271.621 122 271.775 122.08 271.895 122.08C272.135 122.08 272.308 122.027 272.415 121.92C272.535 121.813 272.615 121.66 272.655 121.46C272.695 121.247 272.715 120.993 272.715 120.7H273.695C273.748 121.127 273.715 121.533 273.595 121.92C273.488 122.293 273.288 122.6 272.995 122.84C272.715 123.08 272.335 123.2 271.855 123.2ZM281.683 133.14C280.843 133.14 280.07 132.94 279.363 132.54C278.67 132.127 278.117 131.573 277.703 130.88C277.29 130.187 277.083 129.413 277.083 128.56C277.083 127.707 277.29 126.933 277.703 126.24C278.117 125.547 278.67 124.993 279.363 124.58C280.057 124.167 280.83 123.96 281.683 123.96C282.537 123.96 283.31 124.167 284.003 124.58C284.697 124.993 285.25 125.547 285.663 126.24C286.077 126.933 286.283 127.707 286.283 128.56C286.283 129.413 286.077 130.187 285.663 130.88C285.25 131.573 284.69 132.127 283.983 132.54C283.29 132.94 282.523 133.14 281.683 133.14ZM281.683 131.74C282.27 131.74 282.803 131.6 283.283 131.32C283.777 131.027 284.163 130.64 284.443 130.16C284.737 129.68 284.883 129.147 284.883 128.56C284.883 127.96 284.737 127.42 284.443 126.94C284.163 126.46 283.783 126.08 283.303 125.8C282.823 125.507 282.283 125.36 281.683 125.36C281.097 125.36 280.557 125.507 280.063 125.8C279.583 126.08 279.197 126.46 278.903 126.94C278.623 127.42 278.483 127.96 278.483 128.56C278.483 129.147 278.623 129.68 278.903 130.16C279.197 130.64 279.583 131.027 280.063 131.32C280.557 131.6 281.097 131.74 281.683 131.74ZM293.875 138V124.2H295.275V125.7C295.661 125.193 296.128 124.787 296.675 124.48C297.235 124.16 297.875 124 298.595 124C299.421 124 300.155 124.22 300.795 124.66C301.448 125.087 301.955 125.647 302.315 126.34C302.688 127.033 302.875 127.787 302.875 128.6C302.875 129.4 302.688 130.153 302.315 130.86C301.955 131.553 301.448 132.12 300.795 132.56C300.155 132.987 299.421 133.2 298.595 133.2C298.115 133.2 297.668 133.133 297.255 133C296.855 132.853 296.488 132.653 296.155 132.4C295.835 132.133 295.541 131.833 295.275 131.5V138H293.875ZM298.375 131.8C298.975 131.8 299.508 131.653 299.975 131.36C300.441 131.053 300.808 130.66 301.075 130.18C301.341 129.687 301.475 129.16 301.475 128.6C301.475 128.027 301.341 127.5 301.075 127.02C300.808 126.54 300.441 126.153 299.975 125.86C299.508 125.553 298.975 125.4 298.375 125.4C297.775 125.4 297.241 125.553 296.775 125.86C296.308 126.153 295.941 126.54 295.675 127.02C295.408 127.5 295.275 128.027 295.275 128.6C295.275 129.16 295.408 129.687 295.675 130.18C295.941 130.66 296.308 131.053 296.775 131.36C297.241 131.653 297.775 131.8 298.375 131.8ZM308.553 133.2C307.726 133.2 306.986 132.987 306.333 132.56C305.693 132.12 305.186 131.553 304.813 130.86C304.453 130.153 304.273 129.4 304.273 128.6C304.273 127.787 304.453 127.033 304.813 126.34C305.186 125.647 305.693 125.087 306.333 124.66C306.986 124.22 307.726 124 308.553 124C309.273 124 309.906 124.16 310.453 124.48C311.013 124.787 311.486 125.193 311.873 125.7V124.2H313.273V133H311.873V131.5C311.62 131.833 311.326 132.133 310.993 132.4C310.66 132.653 310.286 132.853 309.873 133C309.473 133.133 309.033 133.2 308.553 133.2ZM308.773 131.8C309.373 131.8 309.906 131.653 310.373 131.36C310.84 131.053 311.206 130.66 311.473 130.18C311.74 129.687 311.873 129.16 311.873 128.6C311.873 128.027 311.74 127.5 311.473 127.02C311.206 126.54 310.84 126.153 310.373 125.86C309.906 125.553 309.373 125.4 308.773 125.4C308.173 125.4 307.64 125.553 307.173 125.86C306.706 126.153 306.34 126.54 306.073 127.02C305.806 127.5 305.673 128.027 305.673 128.6C305.673 129.16 305.806 129.687 306.073 130.18C306.34 130.66 306.706 131.053 307.173 131.36C307.64 131.653 308.173 131.8 308.773 131.8ZM316.082 133V124.2H317.482V125.92C317.655 125.427 317.848 125.047 318.062 124.78C318.288 124.5 318.542 124.307 318.822 124.2C319.102 124.08 319.402 124.02 319.722 124.02C319.868 124.02 320.015 124.033 320.162 124.06C320.322 124.087 320.468 124.133 320.602 124.2V126.02C320.442 125.873 320.275 125.767 320.102 125.7C319.928 125.62 319.748 125.58 319.562 125.58C319.135 125.58 318.762 125.733 318.442 126.04C318.135 126.333 317.895 126.713 317.722 127.18C317.562 127.633 317.482 128.107 317.482 128.6V133H316.082ZM326.385 133.2C325.558 133.2 324.818 132.987 324.165 132.56C323.525 132.12 323.018 131.553 322.645 130.86C322.285 130.153 322.105 129.4 322.105 128.6C322.105 127.787 322.285 127.033 322.645 126.34C323.018 125.647 323.525 125.087 324.165 124.66C324.818 124.22 325.558 124 326.385 124C327.105 124 327.738 124.16 328.285 124.48C328.845 124.787 329.318 125.193 329.705 125.7V124.2H331.105V133H329.705V131.5C329.452 131.833 329.158 132.133 328.825 132.4C328.492 132.653 328.118 132.853 327.705 133C327.305 133.133 326.865 133.2 326.385 133.2ZM326.605 131.8C327.205 131.8 327.738 131.653 328.205 131.36C328.672 131.053 329.038 130.66 329.305 130.18C329.572 129.687 329.705 129.16 329.705 128.6C329.705 128.027 329.572 127.5 329.305 127.02C329.038 126.54 328.672 126.153 328.205 125.86C327.738 125.553 327.205 125.4 326.605 125.4C326.005 125.4 325.472 125.553 325.005 125.86C324.538 126.153 324.172 126.54 323.905 127.02C323.638 127.5 323.505 128.027 323.505 128.6C323.505 129.16 323.638 129.687 323.905 130.18C324.172 130.66 324.538 131.053 325.005 131.36C325.472 131.653 326.005 131.8 326.605 131.8ZM343.084 133.2C342.551 133.2 342.024 133.087 341.504 132.86C340.984 132.633 340.511 132.32 340.084 131.92C339.671 131.507 339.338 131.02 339.084 130.46C338.831 129.9 338.704 129.28 338.704 128.6C338.704 127.76 338.904 126.993 339.304 126.3C339.704 125.607 340.244 125.053 340.924 124.64C341.604 124.227 342.364 124.02 343.204 124.02C343.858 124.02 344.471 124.153 345.044 124.42C345.631 124.687 346.144 125.073 346.584 125.58C347.024 126.073 347.338 126.667 347.524 127.36H346.004C345.764 126.787 345.391 126.333 344.884 126C344.378 125.653 343.864 125.48 343.344 125.48C342.771 125.48 342.238 125.613 341.744 125.88C341.264 126.133 340.878 126.493 340.584 126.96C340.291 127.427 340.144 127.973 340.144 128.6C340.144 129.16 340.278 129.68 340.544 130.16C340.811 130.64 341.178 131.027 341.644 131.32C342.111 131.6 342.631 131.74 343.204 131.74C343.764 131.74 344.278 131.593 344.744 131.3C345.224 131.007 345.598 130.613 345.864 130.12H347.444C347.218 130.773 346.884 131.333 346.444 131.8C346.004 132.253 345.498 132.6 344.924 132.84C344.351 133.08 343.738 133.2 343.084 133.2ZM353.441 133.14C352.601 133.14 351.828 132.94 351.121 132.54C350.428 132.127 349.874 131.573 349.461 130.88C349.048 130.187 348.841 129.413 348.841 128.56C348.841 127.707 349.048 126.933 349.461 126.24C349.874 125.547 350.428 124.993 351.121 124.58C351.814 124.167 352.588 123.96 353.441 123.96C354.294 123.96 355.068 124.167 355.761 124.58C356.454 124.993 357.008 125.547 357.421 126.24C357.834 126.933 358.041 127.707 358.041 128.56C358.041 129.413 357.834 130.187 357.421 130.88C357.008 131.573 356.448 132.127 355.741 132.54C355.048 132.94 354.281 133.14 353.441 133.14ZM353.441 131.74C354.028 131.74 354.561 131.6 355.041 131.32C355.534 131.027 355.921 130.64 356.201 130.16C356.494 129.68 356.641 129.147 356.641 128.56C356.641 127.96 356.494 127.42 356.201 126.94C355.921 126.46 355.541 126.08 355.061 125.8C354.581 125.507 354.041 125.36 353.441 125.36C352.854 125.36 352.314 125.507 351.821 125.8C351.341 126.08 350.954 126.46 350.661 126.94C350.381 127.42 350.241 127.96 350.241 128.56C350.241 129.147 350.381 129.68 350.661 130.16C350.954 130.64 351.341 131.027 351.821 131.32C352.314 131.6 352.854 131.74 353.441 131.74ZM360.242 133V124.2H361.642V125.72C361.922 125.24 362.302 124.84 362.782 124.52C363.262 124.187 363.828 124.02 364.482 124.02C365.175 124.02 365.762 124.16 366.242 124.44C366.722 124.707 367.088 125.1 367.342 125.62C367.595 126.127 367.722 126.753 367.722 127.5V133H366.322V127.5C366.322 127.153 366.268 126.82 366.162 126.5C366.068 126.18 365.895 125.92 365.642 125.72C365.402 125.52 365.068 125.42 364.642 125.42C363.922 125.42 363.342 125.593 362.902 125.94C362.462 126.287 362.142 126.76 361.942 127.36C361.742 127.947 361.642 128.6 361.642 129.32V133H360.242ZM370.32 133V118H371.72V125.72C372 125.24 372.367 124.84 372.82 124.52C373.287 124.187 373.847 124.02 374.5 124.02C375.233 124.02 375.84 124.167 376.32 124.46C376.813 124.74 377.18 125.14 377.42 125.66C377.673 126.18 377.8 126.793 377.8 127.5V133H376.4V127.5C376.4 127.153 376.347 126.82 376.24 126.5C376.147 126.18 375.973 125.92 375.72 125.72C375.48 125.52 375.147 125.42 374.72 125.42C374 125.42 373.42 125.573 372.98 125.88C372.54 126.187 372.22 126.633 372.02 127.22C371.82 127.793 371.72 128.493 371.72 129.32V133H370.32ZM384.618 133.14C383.738 133.14 382.931 132.953 382.198 132.58C381.478 132.193 380.898 131.66 380.458 130.98C380.018 130.287 379.798 129.48 379.798 128.56C379.798 127.707 380.005 126.933 380.418 126.24C380.831 125.547 381.385 124.993 382.078 124.58C382.771 124.167 383.545 123.96 384.398 123.96C385.225 123.96 385.985 124.167 386.678 124.58C387.371 124.993 387.931 125.54 388.358 126.22C388.785 126.9 388.998 127.653 388.998 128.48V129.04H380.678V127.74H387.518C387.358 127.073 386.985 126.513 386.398 126.06C385.825 125.593 385.158 125.36 384.398 125.36C383.771 125.36 383.218 125.507 382.738 125.8C382.271 126.093 381.905 126.493 381.638 127C381.371 127.493 381.238 128.053 381.238 128.68C381.238 129.293 381.391 129.833 381.698 130.3C382.005 130.753 382.398 131.107 382.878 131.36C383.358 131.613 383.865 131.74 384.398 131.74C384.811 131.74 385.191 131.693 385.538 131.6C385.898 131.507 386.225 131.367 386.518 131.18C386.825 130.993 387.098 130.753 387.338 130.46L388.398 131.34C388.105 131.713 387.745 132.04 387.318 132.32C386.905 132.587 386.465 132.793 385.998 132.94C385.531 133.073 385.071 133.14 384.618 133.14ZM394.784 133.2C394.25 133.2 393.724 133.087 393.204 132.86C392.684 132.633 392.21 132.32 391.784 131.92C391.37 131.507 391.037 131.02 390.784 130.46C390.53 129.9 390.404 129.28 390.404 128.6C390.404 127.76 390.604 126.993 391.004 126.3C391.404 125.607 391.944 125.053 392.624 124.64C393.304 124.227 394.064 124.02 394.904 124.02C395.557 124.02 396.17 124.153 396.744 124.42C397.33 124.687 397.844 125.073 398.284 125.58C398.724 126.073 399.037 126.667 399.224 127.36H397.704C397.464 126.787 397.09 126.333 396.584 126C396.077 125.653 395.564 125.48 395.044 125.48C394.47 125.48 393.937 125.613 393.444 125.88C392.964 126.133 392.577 126.493 392.284 126.96C391.99 127.427 391.844 127.973 391.844 128.6C391.844 129.16 391.977 129.68 392.244 130.16C392.51 130.64 392.877 131.027 393.344 131.32C393.81 131.6 394.33 131.74 394.904 131.74C395.464 131.74 395.977 131.593 396.444 131.3C396.924 131.007 397.297 130.613 397.564 130.12H399.144C398.917 130.773 398.584 131.333 398.144 131.8C397.704 132.253 397.197 132.6 396.624 132.84C396.05 133.08 395.437 133.2 394.784 133.2ZM405.36 133.14C404.48 133.14 403.674 132.953 402.94 132.58C402.22 132.193 401.64 131.66 401.2 130.98C400.76 130.287 400.54 129.48 400.54 128.56C400.54 127.707 400.747 126.933 401.16 126.24C401.574 125.547 402.127 124.993 402.82 124.58C403.514 124.167 404.287 123.96 405.14 123.96C405.967 123.96 406.727 124.167 407.42 124.58C408.114 124.993 408.674 125.54 409.1 126.22C409.527 126.9 409.74 127.653 409.74 128.48V129.04H401.42V127.74H408.26C408.1 127.073 407.727 126.513 407.14 126.06C406.567 125.593 405.9 125.36 405.14 125.36C404.514 125.36 403.96 125.507 403.48 125.8C403.014 126.093 402.647 126.493 402.38 127C402.114 127.493 401.98 128.053 401.98 128.68C401.98 129.293 402.134 129.833 402.44 130.3C402.747 130.753 403.14 131.107 403.62 131.36C404.1 131.613 404.607 131.74 405.14 131.74C405.554 131.74 405.934 131.693 406.28 131.6C406.64 131.507 406.967 131.367 407.26 131.18C407.567 130.993 407.84 130.753 408.08 130.46L409.14 131.34C408.847 131.713 408.487 132.04 408.06 132.32C407.647 132.587 407.207 132.793 406.74 132.94C406.274 133.073 405.814 133.14 405.36 133.14ZM411.941 133V124.2H413.341V125.92C413.514 125.427 413.708 125.047 413.921 124.78C414.148 124.5 414.401 124.307 414.681 124.2C414.961 124.08 415.261 124.02 415.581 124.02C415.728 124.02 415.874 124.033 416.021 124.06C416.181 124.087 416.328 124.133 416.461 124.2V126.02C416.301 125.873 416.134 125.767 415.961 125.7C415.788 125.62 415.608 125.58 415.421 125.58C414.994 125.58 414.621 125.733 414.301 126.04C413.994 126.333 413.754 126.713 413.581 127.18C413.421 127.633 413.341 128.107 413.341 128.6V133H411.941ZM423.855 133V124.2H425.255V125.72C425.535 125.24 425.915 124.84 426.395 124.52C426.875 124.187 427.442 124.02 428.095 124.02C428.788 124.02 429.375 124.16 429.855 124.44C430.335 124.707 430.702 125.1 430.955 125.62C431.208 126.127 431.335 126.753 431.335 127.5V133H429.935V127.5C429.935 127.153 429.882 126.82 429.775 126.5C429.682 126.18 429.508 125.92 429.255 125.72C429.015 125.52 428.682 125.42 428.255 125.42C427.535 125.42 426.955 125.593 426.515 125.94C426.075 126.287 425.755 126.76 425.555 127.36C425.355 127.947 425.255 128.6 425.255 129.32V133H423.855ZM437.933 133.14C437.093 133.14 436.32 132.94 435.613 132.54C434.92 132.127 434.367 131.573 433.953 130.88C433.54 130.187 433.333 129.413 433.333 128.56C433.333 127.707 433.54 126.933 433.953 126.24C434.367 125.547 434.92 124.993 435.613 124.58C436.307 124.167 437.08 123.96 437.933 123.96C438.787 123.96 439.56 124.167 440.253 124.58C440.947 124.993 441.5 125.547 441.913 126.24C442.327 126.933 442.533 127.707 442.533 128.56C442.533 129.413 442.327 130.187 441.913 130.88C441.5 131.573 440.94 132.127 440.233 132.54C439.54 132.94 438.773 133.14 437.933 133.14ZM437.933 131.74C438.52 131.74 439.053 131.6 439.533 131.32C440.027 131.027 440.413 130.64 440.693 130.16C440.987 129.68 441.133 129.147 441.133 128.56C441.133 127.96 440.987 127.42 440.693 126.94C440.413 126.46 440.033 126.08 439.553 125.8C439.073 125.507 438.533 125.36 437.933 125.36C437.347 125.36 436.807 125.507 436.313 125.8C435.833 126.08 435.447 126.46 435.153 126.94C434.873 127.42 434.733 127.96 434.733 128.56C434.733 129.147 434.873 129.68 435.153 130.16C435.447 130.64 435.833 131.027 436.313 131.32C436.807 131.6 437.347 131.74 437.933 131.74ZM447.199 133.26C446.519 133.26 445.932 133.16 445.439 132.96C444.959 132.76 444.572 132.46 444.279 132.06C443.985 131.647 443.785 131.14 443.679 130.54H445.159C445.265 130.927 445.419 131.24 445.619 131.48C445.819 131.707 446.059 131.867 446.339 131.96C446.619 132.053 446.932 132.1 447.279 132.1C447.919 132.1 448.399 131.98 448.719 131.74C449.039 131.5 449.199 131.14 449.199 130.66C449.199 130.38 449.085 130.133 448.859 129.92C448.632 129.707 448.285 129.527 447.819 129.38C447.619 129.313 447.365 129.24 447.059 129.16C446.765 129.08 446.465 128.993 446.159 128.9C445.852 128.807 445.572 128.707 445.319 128.6C444.905 128.4 444.572 128.14 444.319 127.82C444.079 127.5 443.959 127.113 443.959 126.66C443.959 126.06 444.105 125.567 444.399 125.18C444.692 124.78 445.072 124.487 445.539 124.3C446.019 124.1 446.532 124 447.079 124C447.905 124 448.605 124.173 449.179 124.52C449.752 124.853 450.139 125.473 450.339 126.38H448.839C448.745 126.073 448.619 125.833 448.459 125.66C448.299 125.473 448.099 125.347 447.859 125.28C447.632 125.2 447.359 125.16 447.039 125.16C446.639 125.16 446.272 125.247 445.939 125.42C445.605 125.593 445.439 125.893 445.439 126.32C445.439 126.747 445.585 127.053 445.879 127.24C446.172 127.413 446.479 127.553 446.799 127.66C446.959 127.7 447.185 127.76 447.479 127.84C447.785 127.907 448.105 127.993 448.439 128.1C448.772 128.193 449.065 128.3 449.319 128.42C449.772 128.633 450.112 128.913 450.339 129.26C450.565 129.607 450.679 130.013 450.679 130.48C450.679 131.133 450.519 131.667 450.199 132.08C449.892 132.48 449.472 132.78 448.939 132.98C448.419 133.167 447.839 133.26 447.199 133.26ZM455.246 133.26C454.566 133.26 453.979 133.16 453.486 132.96C453.006 132.76 452.619 132.46 452.326 132.06C452.032 131.647 451.832 131.14 451.726 130.54H453.206C453.312 130.927 453.466 131.24 453.666 131.48C453.866 131.707 454.106 131.867 454.386 131.96C454.666 132.053 454.979 132.1 455.326 132.1C455.966 132.1 456.446 131.98 456.766 131.74C457.086 131.5 457.246 131.14 457.246 130.66C457.246 130.38 457.132 130.133 456.906 129.92C456.679 129.707 456.332 129.527 455.866 129.38C455.666 129.313 455.412 129.24 455.106 129.16C454.812 129.08 454.512 128.993 454.206 128.9C453.899 128.807 453.619 128.707 453.366 128.6C452.952 128.4 452.619 128.14 452.366 127.82C452.126 127.5 452.006 127.113 452.006 126.66C452.006 126.06 452.152 125.567 452.446 125.18C452.739 124.78 453.119 124.487 453.586 124.3C454.066 124.1 454.579 124 455.126 124C455.952 124 456.652 124.173 457.226 124.52C457.799 124.853 458.186 125.473 458.386 126.38H456.886C456.792 126.073 456.666 125.833 456.506 125.66C456.346 125.473 456.146 125.347 455.906 125.28C455.679 125.2 455.406 125.16 455.086 125.16C454.686 125.16 454.319 125.247 453.986 125.42C453.652 125.593 453.486 125.893 453.486 126.32C453.486 126.747 453.632 127.053 453.926 127.24C454.219 127.413 454.526 127.553 454.846 127.66C455.006 127.7 455.232 127.76 455.526 127.84C455.832 127.907 456.152 127.993 456.486 128.1C456.819 128.193 457.112 128.3 457.366 128.42C457.819 128.633 458.159 128.913 458.386 129.26C458.612 129.607 458.726 130.013 458.726 130.48C458.726 131.133 458.566 131.667 458.246 132.08C457.939 132.48 457.519 132.78 456.986 132.98C456.466 133.167 455.886 133.26 455.246 133.26ZM464.217 133.2C463.39 133.2 462.65 132.987 461.997 132.56C461.357 132.12 460.85 131.553 460.477 130.86C460.117 130.153 459.937 129.4 459.937 128.6C459.937 127.787 460.117 127.033 460.477 126.34C460.85 125.647 461.357 125.087 461.997 124.66C462.65 124.22 463.39 124 464.217 124C464.937 124 465.57 124.16 466.117 124.48C466.677 124.787 467.15 125.193 467.537 125.7V124.2H468.937V133H467.537V131.5C467.284 131.833 466.99 132.133 466.657 132.4C466.324 132.653 465.95 132.853 465.537 133C465.137 133.133 464.697 133.2 464.217 133.2ZM464.437 131.8C465.037 131.8 465.57 131.653 466.037 131.36C466.504 131.053 466.87 130.66 467.137 130.18C467.404 129.687 467.537 129.16 467.537 128.6C467.537 128.027 467.404 127.5 467.137 127.02C466.87 126.54 466.504 126.153 466.037 125.86C465.57 125.553 465.037 125.4 464.437 125.4C463.837 125.4 463.304 125.553 462.837 125.86C462.37 126.153 462.004 126.54 461.737 127.02C461.47 127.5 461.337 128.027 461.337 128.6C461.337 129.16 461.47 129.687 461.737 130.18C462.004 130.66 462.37 131.053 462.837 131.36C463.304 131.653 463.837 131.8 464.437 131.8ZM130.418 162V148.2H131.818V149.7C132.204 149.193 132.671 148.787 133.218 148.48C133.778 148.16 134.418 148 135.138 148C135.964 148 136.698 148.22 137.338 148.66C137.991 149.087 138.498 149.647 138.858 150.34C139.231 151.033 139.418 151.787 139.418 152.6C139.418 153.4 139.231 154.153 138.858 154.86C138.498 155.553 137.991 156.12 137.338 156.56C136.698 156.987 135.964 157.2 135.138 157.2C134.658 157.2 134.211 157.133 133.798 157C133.398 156.853 133.031 156.653 132.698 156.4C132.378 156.133 132.084 155.833 131.818 155.5V162H130.418ZM134.918 155.8C135.518 155.8 136.051 155.653 136.518 155.36C136.984 155.053 137.351 154.66 137.618 154.18C137.884 153.687 138.018 153.16 138.018 152.6C138.018 152.027 137.884 151.5 137.618 151.02C137.351 150.54 136.984 150.153 136.518 149.86C136.051 149.553 135.518 149.4 134.918 149.4C134.318 149.4 133.784 149.553 133.318 149.86C132.851 150.153 132.484 150.54 132.218 151.02C131.951 151.5 131.818 152.027 131.818 152.6C131.818 153.16 131.951 153.687 132.218 154.18C132.484 154.66 132.851 155.053 133.318 155.36C133.784 155.653 134.318 155.8 134.918 155.8ZM141.709 157V142H143.109V157H141.709ZM149.784 157.2C148.957 157.2 148.217 156.987 147.564 156.56C146.924 156.12 146.417 155.553 146.044 154.86C145.684 154.153 145.504 153.4 145.504 152.6C145.504 151.787 145.684 151.033 146.044 150.34C146.417 149.647 146.924 149.087 147.564 148.66C148.217 148.22 148.957 148 149.784 148C150.504 148 151.137 148.16 151.684 148.48C152.244 148.787 152.717 149.193 153.104 149.7V148.2H154.504V157H153.104V155.5C152.85 155.833 152.557 156.133 152.224 156.4C151.89 156.653 151.517 156.853 151.104 157C150.704 157.133 150.264 157.2 149.784 157.2ZM150.004 155.8C150.604 155.8 151.137 155.653 151.604 155.36C152.07 155.053 152.437 154.66 152.704 154.18C152.97 153.687 153.104 153.16 153.104 152.6C153.104 152.027 152.97 151.5 152.704 151.02C152.437 150.54 152.07 150.153 151.604 149.86C151.137 149.553 150.604 149.4 150.004 149.4C149.404 149.4 148.87 149.553 148.404 149.86C147.937 150.153 147.57 150.54 147.304 151.02C147.037 151.5 146.904 152.027 146.904 152.6C146.904 153.16 147.037 153.687 147.304 154.18C147.57 154.66 147.937 155.053 148.404 155.36C148.87 155.653 149.404 155.8 150.004 155.8ZM158.612 157V149.5H156.412V148.2H158.612V144.78H160.012V148.2H162.192V149.5H160.012V157H158.612ZM167.264 157.2C166.437 157.2 165.697 156.987 165.044 156.56C164.404 156.12 163.897 155.553 163.524 154.86C163.164 154.153 162.984 153.4 162.984 152.6C162.984 151.787 163.164 151.033 163.524 150.34C163.897 149.647 164.404 149.087 165.044 148.66C165.697 148.22 166.437 148 167.264 148C167.984 148 168.617 148.16 169.164 148.48C169.724 148.787 170.197 149.193 170.584 149.7V148.2H171.984V157H170.584V155.5C170.331 155.833 170.037 156.133 169.704 156.4C169.371 156.653 168.997 156.853 168.584 157C168.184 157.133 167.744 157.2 167.264 157.2ZM167.484 155.8C168.084 155.8 168.617 155.653 169.084 155.36C169.551 155.053 169.917 154.66 170.184 154.18C170.451 153.687 170.584 153.16 170.584 152.6C170.584 152.027 170.451 151.5 170.184 151.02C169.917 150.54 169.551 150.153 169.084 149.86C168.617 149.553 168.084 149.4 167.484 149.4C166.884 149.4 166.351 149.553 165.884 149.86C165.417 150.153 165.051 150.54 164.784 151.02C164.517 151.5 164.384 152.027 164.384 152.6C164.384 153.16 164.517 153.687 164.784 154.18C165.051 154.66 165.417 155.053 165.884 155.36C166.351 155.653 166.884 155.8 167.484 155.8ZM175.773 157V149.5H173.793V148.2H175.773V144.66C175.773 144.033 175.866 143.527 176.053 143.14C176.253 142.753 176.553 142.467 176.953 142.28C177.366 142.093 177.886 142 178.513 142H179.113V143.3H178.313C177.926 143.3 177.639 143.387 177.453 143.56C177.266 143.733 177.173 144.013 177.173 144.4V148.2H179.313V149.5H177.173V157H175.773ZM184.711 157.14C183.871 157.14 183.097 156.94 182.391 156.54C181.697 156.127 181.144 155.573 180.731 154.88C180.317 154.187 180.111 153.413 180.111 152.56C180.111 151.707 180.317 150.933 180.731 150.24C181.144 149.547 181.697 148.993 182.391 148.58C183.084 148.167 183.857 147.96 184.711 147.96C185.564 147.96 186.337 148.167 187.031 148.58C187.724 148.993 188.277 149.547 188.691 150.24C189.104 150.933 189.311 151.707 189.311 152.56C189.311 153.413 189.104 154.187 188.691 154.88C188.277 155.573 187.717 156.127 187.011 156.54C186.317 156.94 185.551 157.14 184.711 157.14ZM184.711 155.74C185.297 155.74 185.831 155.6 186.311 155.32C186.804 155.027 187.191 154.64 187.471 154.16C187.764 153.68 187.911 153.147 187.911 152.56C187.911 151.96 187.764 151.42 187.471 150.94C187.191 150.46 186.811 150.08 186.331 149.8C185.851 149.507 185.311 149.36 184.711 149.36C184.124 149.36 183.584 149.507 183.091 149.8C182.611 150.08 182.224 150.46 181.931 150.94C181.651 151.42 181.511 151.96 181.511 152.56C181.511 153.147 181.651 153.68 181.931 154.16C182.224 154.64 182.611 155.027 183.091 155.32C183.584 155.6 184.124 155.74 184.711 155.74ZM191.511 157V148.2H192.911V149.92C193.085 149.427 193.278 149.047 193.491 148.78C193.718 148.5 193.971 148.307 194.251 148.2C194.531 148.08 194.831 148.02 195.151 148.02C195.298 148.02 195.445 148.033 195.591 148.06C195.751 148.087 195.898 148.133 196.031 148.2V150.02C195.871 149.873 195.705 149.767 195.531 149.7C195.358 149.62 195.178 149.58 194.991 149.58C194.565 149.58 194.191 149.733 193.871 150.04C193.565 150.333 193.325 150.713 193.151 151.18C192.991 151.633 192.911 152.107 192.911 152.6V157H191.511ZM198.035 156.96V148.16H199.435V149.56C199.701 149.107 200.048 148.727 200.475 148.42C200.901 148.113 201.421 147.96 202.035 147.96C202.701 147.96 203.268 148.1 203.735 148.38C204.201 148.647 204.561 149.067 204.815 149.64C205.081 149.16 205.435 148.76 205.875 148.44C206.315 148.12 206.841 147.96 207.455 147.96C208.135 147.96 208.708 148.1 209.175 148.38C209.641 148.66 209.995 149.06 210.235 149.58C210.475 150.1 210.595 150.727 210.595 151.46V156.96H209.195V151.46C209.195 151.047 209.135 150.687 209.015 150.38C208.895 150.06 208.701 149.813 208.435 149.64C208.181 149.453 207.841 149.36 207.415 149.36C207.055 149.36 206.701 149.46 206.355 149.66C206.021 149.847 205.741 150.1 205.515 150.42C205.288 150.727 205.175 151.073 205.175 151.46V156.96H203.775V151.46C203.775 151.047 203.715 150.687 203.595 150.38C203.475 150.06 203.281 149.813 203.015 149.64C202.761 149.453 202.421 149.36 201.995 149.36C201.501 149.36 201.068 149.507 200.695 149.8C200.335 150.093 200.048 150.473 199.835 150.94C199.621 151.407 199.488 151.913 199.435 152.46V156.96H198.035ZM216.971 157.2C216.144 157.2 215.404 156.987 214.751 156.56C214.111 156.12 213.604 155.553 213.231 154.86C212.871 154.153 212.691 153.4 212.691 152.6C212.691 151.787 212.871 151.033 213.231 150.34C213.604 149.647 214.111 149.087 214.751 148.66C215.404 148.22 216.144 148 216.971 148C217.691 148 218.324 148.16 218.871 148.48C219.431 148.787 219.904 149.193 220.291 149.7V148.2H221.691V157H220.291V155.5C220.038 155.833 219.744 156.133 219.411 156.4C219.078 156.653 218.704 156.853 218.291 157C217.891 157.133 217.451 157.2 216.971 157.2ZM217.191 155.8C217.791 155.8 218.324 155.653 218.791 155.36C219.258 155.053 219.624 154.66 219.891 154.18C220.158 153.687 220.291 153.16 220.291 152.6C220.291 152.027 220.158 151.5 219.891 151.02C219.624 150.54 219.258 150.153 218.791 149.86C218.324 149.553 217.791 149.4 217.191 149.4C216.591 149.4 216.058 149.553 215.591 149.86C215.124 150.153 214.758 150.54 214.491 151.02C214.224 151.5 214.091 152.027 214.091 152.6C214.091 153.16 214.224 153.687 214.491 154.18C214.758 154.66 215.124 155.053 215.591 155.36C216.058 155.653 216.591 155.8 217.191 155.8ZM224.5 159.24L223.92 158.48C224.12 158.333 224.346 158.12 224.6 157.84C224.853 157.573 225.013 157.3 225.08 157.02H224.98C224.7 157.02 224.446 156.92 224.22 156.72C223.993 156.507 223.88 156.233 223.88 155.9C223.88 155.687 223.933 155.493 224.04 155.32C224.146 155.147 224.286 155.013 224.46 154.92C224.633 154.813 224.826 154.76 225.04 154.76C225.453 154.76 225.766 154.9 225.98 155.18C226.193 155.46 226.3 155.853 226.3 156.36C226.3 156.733 226.213 157.093 226.04 157.44C225.88 157.8 225.66 158.127 225.38 158.42C225.113 158.727 224.82 159 224.5 159.24ZM238.539 157.14C237.699 157.14 236.925 156.94 236.219 156.54C235.525 156.127 234.972 155.573 234.559 154.88C234.145 154.187 233.939 153.413 233.939 152.56C233.939 151.707 234.145 150.933 234.559 150.24C234.972 149.547 235.525 148.993 236.219 148.58C236.912 148.167 237.685 147.96 238.539 147.96C239.392 147.96 240.165 148.167 240.859 148.58C241.552 148.993 242.105 149.547 242.519 150.24C242.932 150.933 243.139 151.707 243.139 152.56C243.139 153.413 242.932 154.187 242.519 154.88C242.105 155.573 241.545 156.127 240.839 156.54C240.145 156.94 239.379 157.14 238.539 157.14ZM238.539 155.74C239.125 155.74 239.659 155.6 240.139 155.32C240.632 155.027 241.019 154.64 241.299 154.16C241.592 153.68 241.739 153.147 241.739 152.56C241.739 151.96 241.592 151.42 241.299 150.94C241.019 150.46 240.639 150.08 240.159 149.8C239.679 149.507 239.139 149.36 238.539 149.36C237.952 149.36 237.412 149.507 236.919 149.8C236.439 150.08 236.052 150.46 235.759 150.94C235.479 151.42 235.339 151.96 235.339 152.56C235.339 153.147 235.479 153.68 235.759 154.16C236.052 154.64 236.439 155.027 236.919 155.32C237.412 155.6 237.952 155.74 238.539 155.74ZM248.479 157.18C247.786 157.18 247.206 157.027 246.739 156.72C246.273 156.4 245.919 155.98 245.679 155.46C245.453 154.94 245.339 154.353 245.339 153.7V148.2H246.739V153.7C246.739 154.047 246.786 154.38 246.879 154.7C246.986 155.02 247.159 155.28 247.399 155.48C247.653 155.68 247.993 155.78 248.419 155.78C249.206 155.78 249.813 155.607 250.239 155.26C250.679 154.913 250.986 154.447 251.159 153.86C251.333 153.26 251.419 152.6 251.419 151.88V148.2H252.819V157H251.419V155.5C251.086 156.06 250.673 156.48 250.179 156.76C249.699 157.04 249.133 157.18 248.479 157.18ZM265.028 157.14C264.148 157.14 263.342 156.953 262.608 156.58C261.888 156.193 261.308 155.66 260.868 154.98C260.428 154.287 260.208 153.48 260.208 152.56C260.208 151.707 260.415 150.933 260.828 150.24C261.242 149.547 261.795 148.993 262.488 148.58C263.182 148.167 263.955 147.96 264.808 147.96C265.635 147.96 266.395 148.167 267.088 148.58C267.782 148.993 268.342 149.54 268.768 150.22C269.195 150.9 269.408 151.653 269.408 152.48V153.04H261.088V151.74H267.928C267.768 151.073 267.395 150.513 266.808 150.06C266.235 149.593 265.568 149.36 264.808 149.36C264.182 149.36 263.628 149.507 263.148 149.8C262.682 150.093 262.315 150.493 262.048 151C261.782 151.493 261.648 152.053 261.648 152.68C261.648 153.293 261.802 153.833 262.108 154.3C262.415 154.753 262.808 155.107 263.288 155.36C263.768 155.613 264.275 155.74 264.808 155.74C265.222 155.74 265.602 155.693 265.948 155.6C266.308 155.507 266.635 155.367 266.928 155.18C267.235 154.993 267.508 154.753 267.748 154.46L268.808 155.34C268.515 155.713 268.155 156.04 267.728 156.32C267.315 156.587 266.875 156.793 266.408 156.94C265.942 157.073 265.482 157.14 265.028 157.14ZM271.609 157V148.2H273.009V149.72C273.289 149.24 273.669 148.84 274.149 148.52C274.629 148.187 275.196 148.02 275.849 148.02C276.542 148.02 277.129 148.16 277.609 148.44C278.089 148.707 278.456 149.1 278.709 149.62C278.962 150.127 279.089 150.753 279.089 151.5V157H277.689V151.5C277.689 151.153 277.636 150.82 277.529 150.5C277.436 150.18 277.262 149.92 277.009 149.72C276.769 149.52 276.436 149.42 276.009 149.42C275.289 149.42 274.709 149.593 274.269 149.94C273.829 150.287 273.509 150.76 273.309 151.36C273.109 151.947 273.009 152.6 273.009 153.32V157H271.609ZM282.987 157V149.5H280.787V148.2H282.987V144.78H284.387V148.2H286.567V149.5H284.387V157H282.987ZM288.464 157V148.2H289.864V149.92C290.038 149.427 290.231 149.047 290.444 148.78C290.671 148.5 290.924 148.307 291.204 148.2C291.484 148.08 291.784 148.02 292.104 148.02C292.251 148.02 292.398 148.033 292.544 148.06C292.704 148.087 292.851 148.133 292.984 148.2V150.02C292.824 149.873 292.658 149.767 292.484 149.7C292.311 149.62 292.131 149.58 291.944 149.58C291.518 149.58 291.144 149.733 290.824 150.04C290.518 150.333 290.278 150.713 290.104 151.18C289.944 151.633 289.864 152.107 289.864 152.6V157H288.464ZM298.768 157.2C297.941 157.2 297.201 156.987 296.548 156.56C295.908 156.12 295.401 155.553 295.028 154.86C294.668 154.153 294.488 153.4 294.488 152.6C294.488 151.787 294.668 151.033 295.028 150.34C295.401 149.647 295.908 149.087 296.548 148.66C297.201 148.22 297.941 148 298.768 148C299.488 148 300.121 148.16 300.668 148.48C301.228 148.787 301.701 149.193 302.088 149.7V148.2H303.488V157H302.088V155.5C301.835 155.833 301.541 156.133 301.208 156.4C300.875 156.653 300.501 156.853 300.088 157C299.688 157.133 299.248 157.2 298.768 157.2ZM298.988 155.8C299.588 155.8 300.121 155.653 300.588 155.36C301.055 155.053 301.421 154.66 301.688 154.18C301.955 153.687 302.088 153.16 302.088 152.6C302.088 152.027 301.955 151.5 301.688 151.02C301.421 150.54 301.055 150.153 300.588 149.86C300.121 149.553 299.588 149.4 298.988 149.4C298.388 149.4 297.855 149.553 297.388 149.86C296.921 150.153 296.555 150.54 296.288 151.02C296.021 151.5 295.888 152.027 295.888 152.6C295.888 153.16 296.021 153.687 296.288 154.18C296.555 154.66 296.921 155.053 297.388 155.36C297.855 155.653 298.388 155.8 298.988 155.8ZM306.296 157V148.2H307.696V149.92C307.87 149.427 308.063 149.047 308.276 148.78C308.503 148.5 308.756 148.307 309.036 148.2C309.316 148.08 309.616 148.02 309.936 148.02C310.083 148.02 310.23 148.033 310.376 148.06C310.536 148.087 310.683 148.133 310.816 148.2V150.02C310.656 149.873 310.49 149.767 310.316 149.7C310.143 149.62 309.963 149.58 309.776 149.58C309.35 149.58 308.976 149.733 308.656 150.04C308.35 150.333 308.11 150.713 307.936 151.18C307.776 151.633 307.696 152.107 307.696 152.6V157H306.296ZM322.431 157.14C321.551 157.14 320.744 156.953 320.011 156.58C319.291 156.193 318.711 155.66 318.271 154.98C317.831 154.287 317.611 153.48 317.611 152.56C317.611 151.707 317.817 150.933 318.231 150.24C318.644 149.547 319.197 148.993 319.891 148.58C320.584 148.167 321.357 147.96 322.211 147.96C323.037 147.96 323.797 148.167 324.491 148.58C325.184 148.993 325.744 149.54 326.171 150.22C326.597 150.9 326.811 151.653 326.811 152.48V153.04H318.491V151.74H325.331C325.171 151.073 324.797 150.513 324.211 150.06C323.637 149.593 322.971 149.36 322.211 149.36C321.584 149.36 321.031 149.507 320.551 149.8C320.084 150.093 319.717 150.493 319.451 151C319.184 151.493 319.051 152.053 319.051 152.68C319.051 153.293 319.204 153.833 319.511 154.3C319.817 154.753 320.211 155.107 320.691 155.36C321.171 155.613 321.677 155.74 322.211 155.74C322.624 155.74 323.004 155.693 323.351 155.6C323.711 155.507 324.037 155.367 324.331 155.18C324.637 154.993 324.911 154.753 325.151 154.46L326.211 155.34C325.917 155.713 325.557 156.04 325.131 156.32C324.717 156.587 324.277 156.793 323.811 156.94C323.344 157.073 322.884 157.14 322.431 157.14ZM338.182 157.2C337.649 157.2 337.122 157.087 336.602 156.86C336.082 156.633 335.609 156.32 335.182 155.92C334.769 155.507 334.435 155.02 334.182 154.46C333.929 153.9 333.802 153.28 333.802 152.6C333.802 151.76 334.002 150.993 334.402 150.3C334.802 149.607 335.342 149.053 336.022 148.64C336.702 148.227 337.462 148.02 338.302 148.02C338.955 148.02 339.569 148.153 340.142 148.42C340.729 148.687 341.242 149.073 341.682 149.58C342.122 150.073 342.435 150.667 342.622 151.36H341.102C340.862 150.787 340.489 150.333 339.982 150C339.475 149.653 338.962 149.48 338.442 149.48C337.869 149.48 337.335 149.613 336.842 149.88C336.362 150.133 335.975 150.493 335.682 150.96C335.389 151.427 335.242 151.973 335.242 152.6C335.242 153.16 335.375 153.68 335.642 154.16C335.909 154.64 336.275 155.027 336.742 155.32C337.209 155.6 337.729 155.74 338.302 155.74C338.862 155.74 339.375 155.593 339.842 155.3C340.322 155.007 340.695 154.613 340.962 154.12H342.542C342.315 154.773 341.982 155.333 341.542 155.8C341.102 156.253 340.595 156.6 340.022 156.84C339.449 157.08 338.835 157.2 338.182 157.2ZM348.539 157.14C347.699 157.14 346.925 156.94 346.219 156.54C345.525 156.127 344.972 155.573 344.559 154.88C344.145 154.187 343.939 153.413 343.939 152.56C343.939 151.707 344.145 150.933 344.559 150.24C344.972 149.547 345.525 148.993 346.219 148.58C346.912 148.167 347.685 147.96 348.539 147.96C349.392 147.96 350.165 148.167 350.859 148.58C351.552 148.993 352.105 149.547 352.519 150.24C352.932 150.933 353.139 151.707 353.139 152.56C353.139 153.413 352.932 154.187 352.519 154.88C352.105 155.573 351.545 156.127 350.839 156.54C350.145 156.94 349.379 157.14 348.539 157.14ZM348.539 155.74C349.125 155.74 349.659 155.6 350.139 155.32C350.632 155.027 351.019 154.64 351.299 154.16C351.592 153.68 351.739 153.147 351.739 152.56C351.739 151.96 351.592 151.42 351.299 150.94C351.019 150.46 350.639 150.08 350.159 149.8C349.679 149.507 349.139 149.36 348.539 149.36C347.952 149.36 347.412 149.507 346.919 149.8C346.439 150.08 346.052 150.46 345.759 150.94C345.479 151.42 345.339 151.96 345.339 152.56C345.339 153.147 345.479 153.68 345.759 154.16C346.052 154.64 346.439 155.027 346.919 155.32C347.412 155.6 347.952 155.74 348.539 155.74ZM355.339 156.96V148.16H356.739V149.56C357.006 149.107 357.353 148.727 357.779 148.42C358.206 148.113 358.726 147.96 359.339 147.96C360.006 147.96 360.573 148.1 361.039 148.38C361.506 148.647 361.866 149.067 362.119 149.64C362.386 149.16 362.739 148.76 363.179 148.44C363.619 148.12 364.146 147.96 364.759 147.96C365.439 147.96 366.013 148.1 366.479 148.38C366.946 148.66 367.299 149.06 367.539 149.58C367.779 150.1 367.899 150.727 367.899 151.46V156.96H366.499V151.46C366.499 151.047 366.439 150.687 366.319 150.38C366.199 150.06 366.006 149.813 365.739 149.64C365.486 149.453 365.146 149.36 364.719 149.36C364.359 149.36 364.006 149.46 363.659 149.66C363.326 149.847 363.046 150.1 362.819 150.42C362.593 150.727 362.479 151.073 362.479 151.46V156.96H361.079V151.46C361.079 151.047 361.019 150.687 360.899 150.38C360.779 150.06 360.586 149.813 360.319 149.64C360.066 149.453 359.726 149.36 359.299 149.36C358.806 149.36 358.373 149.507 357.999 149.8C357.639 150.093 357.353 150.473 357.139 150.94C356.926 151.407 356.793 151.913 356.739 152.46V156.96H355.339ZM374.716 157.14C373.836 157.14 373.029 156.953 372.296 156.58C371.576 156.193 370.996 155.66 370.556 154.98C370.116 154.287 369.896 153.48 369.896 152.56C369.896 151.707 370.102 150.933 370.516 150.24C370.929 149.547 371.482 148.993 372.176 148.58C372.869 148.167 373.642 147.96 374.496 147.96C375.322 147.96 376.082 148.167 376.776 148.58C377.469 148.993 378.029 149.54 378.456 150.22C378.882 150.9 379.096 151.653 379.096 152.48V153.04H370.776V151.74H377.616C377.456 151.073 377.082 150.513 376.496 150.06C375.922 149.593 375.256 149.36 374.496 149.36C373.869 149.36 373.316 149.507 372.836 149.8C372.369 150.093 372.002 150.493 371.736 151C371.469 151.493 371.336 152.053 371.336 152.68C371.336 153.293 371.489 153.833 371.796 154.3C372.102 154.753 372.496 155.107 372.976 155.36C373.456 155.613 373.962 155.74 374.496 155.74C374.909 155.74 375.289 155.693 375.636 155.6C375.996 155.507 376.322 155.367 376.616 155.18C376.922 154.993 377.196 154.753 377.436 154.46L378.496 155.34C378.202 155.713 377.842 156.04 377.416 156.32C377.002 156.587 376.562 156.793 376.096 156.94C375.629 157.073 375.169 157.14 374.716 157.14ZM385.076 157.2C384.543 157.2 384.016 157.087 383.496 156.86C382.976 156.633 382.503 156.32 382.076 155.92C381.663 155.507 381.33 155.02 381.076 154.46C380.823 153.9 380.696 153.28 380.696 152.6C380.696 151.76 380.896 150.993 381.296 150.3C381.696 149.607 382.236 149.053 382.916 148.64C383.596 148.227 384.356 148.02 385.196 148.02C385.85 148.02 386.463 148.153 387.036 148.42C387.623 148.687 388.136 149.073 388.576 149.58C389.016 150.073 389.33 150.667 389.516 151.36H387.996C387.756 150.787 387.383 150.333 386.876 150C386.37 149.653 385.856 149.48 385.336 149.48C384.763 149.48 384.23 149.613 383.736 149.88C383.256 150.133 382.87 150.493 382.576 150.96C382.283 151.427 382.136 151.973 382.136 152.6C382.136 153.16 382.27 153.68 382.536 154.16C382.803 154.64 383.17 155.027 383.636 155.32C384.103 155.6 384.623 155.74 385.196 155.74C385.756 155.74 386.27 155.593 386.736 155.3C387.216 155.007 387.59 154.613 387.856 154.12H389.436C389.21 154.773 388.876 155.333 388.436 155.8C387.996 156.253 387.49 156.6 386.916 156.84C386.343 157.08 385.73 157.2 385.076 157.2ZM382.496 161.84L382.996 160.8C383.29 160.893 383.576 160.967 383.856 161.02C384.15 161.087 384.43 161.12 384.696 161.12C385.136 161.12 385.51 161.047 385.816 160.9C386.136 160.753 386.296 160.473 386.296 160.06C386.296 159.753 386.163 159.513 385.896 159.34C385.643 159.18 385.336 159.1 384.976 159.1C384.75 159.1 384.516 159.12 384.276 159.16C384.036 159.213 383.81 159.253 383.596 159.28L384.916 156.36L386.036 156.34L385.176 158.14C385.19 158.127 385.363 158.12 385.696 158.12C386.123 158.12 386.516 158.287 386.876 158.62C387.236 158.967 387.416 159.453 387.416 160.08C387.416 160.6 387.276 161.02 386.996 161.34C386.73 161.66 386.39 161.893 385.976 162.04C385.563 162.187 385.136 162.26 384.696 162.26C384.35 162.26 383.983 162.22 383.596 162.14C383.21 162.073 382.843 161.973 382.496 161.84ZM395.506 157.2C394.68 157.2 393.94 156.987 393.286 156.56C392.646 156.12 392.14 155.553 391.766 154.86C391.406 154.153 391.226 153.4 391.226 152.6C391.226 151.787 391.406 151.033 391.766 150.34C392.14 149.647 392.646 149.087 393.286 148.66C393.94 148.22 394.68 148 395.506 148C396.226 148 396.86 148.16 397.406 148.48C397.966 148.787 398.44 149.193 398.826 149.7V148.2H400.226V157H398.826V155.5C398.573 155.833 398.28 156.133 397.946 156.4C397.613 156.653 397.24 156.853 396.826 157C396.426 157.133 395.986 157.2 395.506 157.2ZM395.726 155.8C396.326 155.8 396.86 155.653 397.326 155.36C397.793 155.053 398.16 154.66 398.426 154.18C398.693 153.687 398.826 153.16 398.826 152.6C398.826 152.027 398.693 151.5 398.426 151.02C398.16 150.54 397.793 150.153 397.326 149.86C396.86 149.553 396.326 149.4 395.726 149.4C395.126 149.4 394.593 149.553 394.126 149.86C393.66 150.153 393.293 150.54 393.026 151.02C392.76 151.5 392.626 152.027 392.626 152.6C392.626 153.16 392.76 153.687 393.026 154.18C393.293 154.66 393.66 155.053 394.126 155.36C394.593 155.653 395.126 155.8 395.726 155.8ZM403.035 157V148.2H404.435V149.92C404.608 149.427 404.801 149.047 405.015 148.78C405.241 148.5 405.495 148.307 405.775 148.2C406.055 148.08 406.355 148.02 406.675 148.02C406.821 148.02 406.968 148.033 407.115 148.06C407.275 148.087 407.421 148.133 407.555 148.2V150.02C407.395 149.873 407.228 149.767 407.055 149.7C406.881 149.62 406.701 149.58 406.515 149.58C406.088 149.58 405.715 149.733 405.395 150.04C405.088 150.333 404.848 150.713 404.675 151.18C404.515 151.633 404.435 152.107 404.435 152.6V157H403.035ZM417.609 157.26C416.929 157.26 416.342 157.16 415.849 156.96C415.369 156.76 414.982 156.46 414.689 156.06C414.395 155.647 414.195 155.14 414.089 154.54H415.569C415.675 154.927 415.829 155.24 416.029 155.48C416.229 155.707 416.469 155.867 416.749 155.96C417.029 156.053 417.342 156.1 417.689 156.1C418.329 156.1 418.809 155.98 419.129 155.74C419.449 155.5 419.609 155.14 419.609 154.66C419.609 154.38 419.495 154.133 419.269 153.92C419.042 153.707 418.695 153.527 418.229 153.38C418.029 153.313 417.775 153.24 417.469 153.16C417.175 153.08 416.875 152.993 416.569 152.9C416.262 152.807 415.982 152.707 415.729 152.6C415.315 152.4 414.982 152.14 414.729 151.82C414.489 151.5 414.369 151.113 414.369 150.66C414.369 150.06 414.515 149.567 414.809 149.18C415.102 148.78 415.482 148.487 415.949 148.3C416.429 148.1 416.942 148 417.489 148C418.315 148 419.015 148.173 419.589 148.52C420.162 148.853 420.549 149.473 420.749 150.38H419.249C419.155 150.073 419.029 149.833 418.869 149.66C418.709 149.473 418.509 149.347 418.269 149.28C418.042 149.2 417.769 149.16 417.449 149.16C417.049 149.16 416.682 149.247 416.349 149.42C416.015 149.593 415.849 149.893 415.849 150.32C415.849 150.747 415.995 151.053 416.289 151.24C416.582 151.413 416.889 151.553 417.209 151.66C417.369 151.7 417.595 151.76 417.889 151.84C418.195 151.907 418.515 151.993 418.849 152.1C419.182 152.193 419.475 152.3 419.729 152.42C420.182 152.633 420.522 152.913 420.749 153.26C420.975 153.607 421.089 154.013 421.089 154.48C421.089 155.133 420.929 155.667 420.609 156.08C420.302 156.48 419.882 156.78 419.349 156.98C418.829 157.167 418.249 157.26 417.609 157.26ZM426.136 157.18C425.442 157.18 424.862 157.027 424.396 156.72C423.929 156.4 423.576 155.98 423.336 155.46C423.109 154.94 422.996 154.353 422.996 153.7V148.2H424.396V153.7C424.396 154.047 424.442 154.38 424.536 154.7C424.642 155.02 424.816 155.28 425.056 155.48C425.309 155.68 425.649 155.78 426.076 155.78C426.862 155.78 427.469 155.607 427.896 155.26C428.336 154.913 428.642 154.447 428.816 153.86C428.989 153.26 429.076 152.6 429.076 151.88V148.2H430.476V157H429.076V155.5C428.742 156.06 428.329 156.48 427.836 156.76C427.356 157.04 426.789 157.18 426.136 157.18ZM436.854 157.2C436.027 157.2 435.287 156.987 434.634 156.56C433.994 156.12 433.487 155.553 433.114 154.86C432.754 154.153 432.574 153.4 432.574 152.6C432.574 151.787 432.754 151.033 433.114 150.34C433.487 149.647 433.994 149.087 434.634 148.66C435.287 148.22 436.027 148 436.854 148C437.574 148 438.207 148.16 438.754 148.48C439.314 148.787 439.787 149.193 440.174 149.7V148.2H441.574V157H440.174V155.5C439.92 155.833 439.627 156.133 439.294 156.4C438.96 156.653 438.587 156.853 438.174 157C437.774 157.133 437.334 157.2 436.854 157.2ZM437.074 155.8C437.674 155.8 438.207 155.653 438.674 155.36C439.14 155.053 439.507 154.66 439.774 154.18C440.04 153.687 440.174 153.16 440.174 152.6C440.174 152.027 440.04 151.5 439.774 151.02C439.507 150.54 439.14 150.153 438.674 149.86C438.207 149.553 437.674 149.4 437.074 149.4C436.474 149.4 435.94 149.553 435.474 149.86C435.007 150.153 434.64 150.54 434.374 151.02C434.107 151.5 433.974 152.027 433.974 152.6C433.974 153.16 434.107 153.687 434.374 154.18C434.64 154.66 435.007 155.053 435.474 155.36C435.94 155.653 436.474 155.8 437.074 155.8ZM255.481 170.68C255.228 170.68 255.014 170.593 254.841 170.42C254.668 170.247 254.581 170.033 254.581 169.78C254.581 169.54 254.668 169.333 254.841 169.16C255.014 168.987 255.228 168.9 255.481 168.9C255.721 168.9 255.928 168.987 256.101 169.16C256.274 169.333 256.361 169.54 256.361 169.78C256.361 170.033 256.274 170.247 256.101 170.42C255.928 170.593 255.721 170.68 255.481 170.68ZM253.341 185.86C252.901 185.86 252.454 185.773 252.001 185.6C251.534 185.427 251.114 185.127 250.741 184.7L251.661 183.7C251.821 183.913 252.041 184.1 252.321 184.26C252.588 184.42 252.848 184.5 253.101 184.5C253.608 184.5 254.008 184.333 254.301 184C254.594 183.667 254.741 183.233 254.741 182.7V172.2H256.141V182.68C256.141 183.24 256.021 183.76 255.781 184.24C255.541 184.733 255.208 185.127 254.781 185.42C254.368 185.713 253.888 185.86 253.341 185.86ZM263.148 181.14C262.308 181.14 261.535 180.94 260.828 180.54C260.135 180.127 259.581 179.573 259.168 178.88C258.755 178.187 258.548 177.413 258.548 176.56C258.548 175.707 258.755 174.933 259.168 174.24C259.581 173.547 260.135 172.993 260.828 172.58C261.521 172.167 262.295 171.96 263.148 171.96C264.001 171.96 264.775 172.167 265.468 172.58C266.161 172.993 266.715 173.547 267.128 174.24C267.541 174.933 267.748 175.707 267.748 176.56C267.748 177.413 267.541 178.187 267.128 178.88C266.715 179.573 266.155 180.127 265.448 180.54C264.755 180.94 263.988 181.14 263.148 181.14ZM263.148 179.74C263.735 179.74 264.268 179.6 264.748 179.32C265.241 179.027 265.628 178.64 265.908 178.16C266.201 177.68 266.348 177.147 266.348 176.56C266.348 175.96 266.201 175.42 265.908 174.94C265.628 174.46 265.248 174.08 264.768 173.8C264.288 173.507 263.748 173.36 263.148 173.36C262.561 173.36 262.021 173.507 261.528 173.8C261.048 174.08 260.661 174.46 260.368 174.94C260.088 175.42 259.948 175.96 259.948 176.56C259.948 177.147 260.088 177.68 260.368 178.16C260.661 178.64 261.048 179.027 261.528 179.32C262.021 179.6 262.561 179.74 263.148 179.74ZM269.949 181V172.2H271.349V173.92C271.522 173.427 271.715 173.047 271.929 172.78C272.155 172.5 272.409 172.307 272.689 172.2C272.969 172.08 273.269 172.02 273.589 172.02C273.735 172.02 273.882 172.033 274.029 172.06C274.189 172.087 274.335 172.133 274.469 172.2V174.02C274.309 173.873 274.142 173.767 273.969 173.7C273.795 173.62 273.615 173.58 273.429 173.58C273.002 173.58 272.629 173.733 272.309 174.04C272.002 174.333 271.762 174.713 271.589 175.18C271.429 175.633 271.349 176.107 271.349 176.6V181H269.949ZM276.472 181V172.2H277.872V173.72C278.152 173.24 278.532 172.84 279.012 172.52C279.492 172.187 280.059 172.02 280.712 172.02C281.406 172.02 281.992 172.16 282.472 172.44C282.952 172.707 283.319 173.1 283.572 173.62C283.826 174.127 283.952 174.753 283.952 175.5V181H282.552V175.5C282.552 175.153 282.499 174.82 282.392 174.5C282.299 174.18 282.126 173.92 281.872 173.72C281.632 173.52 281.299 173.42 280.872 173.42C280.152 173.42 279.572 173.593 279.132 173.94C278.692 174.287 278.372 174.76 278.172 175.36C277.972 175.947 277.872 176.6 277.872 177.32V181H276.472ZM290.33 181.2C289.504 181.2 288.764 180.987 288.11 180.56C287.47 180.12 286.964 179.553 286.59 178.86C286.23 178.153 286.05 177.4 286.05 176.6C286.05 175.787 286.23 175.033 286.59 174.34C286.964 173.647 287.47 173.087 288.11 172.66C288.764 172.22 289.504 172 290.33 172C291.05 172 291.684 172.16 292.23 172.48C292.79 172.787 293.264 173.193 293.65 173.7V172.2H295.05V181H293.65V179.5C293.397 179.833 293.104 180.133 292.77 180.4C292.437 180.653 292.064 180.853 291.65 181C291.25 181.133 290.81 181.2 290.33 181.2ZM290.55 179.8C291.15 179.8 291.684 179.653 292.15 179.36C292.617 179.053 292.984 178.66 293.25 178.18C293.517 177.687 293.65 177.16 293.65 176.6C293.65 176.027 293.517 175.5 293.25 175.02C292.984 174.54 292.617 174.153 292.15 173.86C291.684 173.553 291.15 173.4 290.55 173.4C289.95 173.4 289.417 173.553 288.95 173.86C288.484 174.153 288.117 174.54 287.85 175.02C287.584 175.5 287.45 176.027 287.45 176.6C287.45 177.16 287.584 177.687 287.85 178.18C288.117 178.66 288.484 179.053 288.95 179.36C289.417 179.653 289.95 179.8 290.55 179.8ZM301.539 181.2C300.712 181.2 299.972 180.987 299.319 180.56C298.679 180.12 298.172 179.553 297.799 178.86C297.439 178.153 297.259 177.4 297.259 176.6C297.259 175.787 297.439 175.033 297.799 174.34C298.172 173.647 298.679 173.087 299.319 172.66C299.972 172.22 300.712 172 301.539 172C302.259 172 302.906 172.147 303.479 172.44C304.052 172.733 304.512 173.153 304.859 173.7V166H306.259V181H304.859V179.5C304.606 179.833 304.312 180.133 303.979 180.4C303.646 180.653 303.272 180.853 302.859 181C302.459 181.133 302.019 181.2 301.539 181.2ZM301.759 179.8C302.359 179.8 302.892 179.653 303.359 179.36C303.826 179.053 304.192 178.66 304.459 178.18C304.726 177.687 304.859 177.16 304.859 176.6C304.859 176.027 304.726 175.5 304.459 175.02C304.192 174.54 303.826 174.153 303.359 173.86C302.892 173.553 302.359 173.4 301.759 173.4C301.159 173.4 300.626 173.553 300.159 173.86C299.692 174.153 299.326 174.54 299.059 175.02C298.792 175.5 298.659 176.027 298.659 176.6C298.659 177.16 298.792 177.687 299.059 178.18C299.326 178.66 299.692 179.053 300.159 179.36C300.626 179.653 301.159 179.8 301.759 179.8ZM312.83 181.2C312.004 181.2 311.264 180.987 310.61 180.56C309.97 180.12 309.464 179.553 309.09 178.86C308.73 178.153 308.55 177.4 308.55 176.6C308.55 175.787 308.73 175.033 309.09 174.34C309.464 173.647 309.97 173.087 310.61 172.66C311.264 172.22 312.004 172 312.83 172C313.55 172 314.184 172.16 314.73 172.48C315.29 172.787 315.764 173.193 316.15 173.7V172.2H317.55V181H316.15V179.5C315.897 179.833 315.604 180.133 315.27 180.4C314.937 180.653 314.564 180.853 314.15 181C313.75 181.133 313.31 181.2 312.83 181.2ZM313.05 179.8C313.65 179.8 314.184 179.653 314.65 179.36C315.117 179.053 315.484 178.66 315.75 178.18C316.017 177.687 316.15 177.16 316.15 176.6C316.15 176.027 316.017 175.5 315.75 175.02C315.484 174.54 315.117 174.153 314.65 173.86C314.184 173.553 313.65 173.4 313.05 173.4C312.45 173.4 311.917 173.553 311.45 173.86C310.984 174.153 310.617 174.54 310.35 175.02C310.084 175.5 309.95 176.027 309.95 176.6C309.95 177.16 310.084 177.687 310.35 178.18C310.617 178.66 310.984 179.053 311.45 179.36C311.917 179.653 312.45 179.8 313.05 179.8Z" fill="white"/>
<path d="M338.63 109L344.17 95.4H346.11L351.65 109H349.01L347.87 105.94H342.41L341.27 109H338.63ZM343.17 103.86H347.11L345.13 98.56L343.17 103.86ZM356.88 109.2C356.2 109.2 355.567 109.087 354.98 108.86C354.407 108.62 353.907 108.293 353.48 107.88C353.053 107.453 352.727 106.96 352.5 106.4C352.273 105.84 352.16 105.24 352.16 104.6C352.16 103.76 352.36 102.993 352.76 102.3C353.16 101.593 353.72 101.033 354.44 100.62C355.16 100.207 355.987 100 356.92 100C357.773 100 358.527 100.16 359.18 100.48C359.847 100.787 360.387 101.213 360.8 101.76C361.227 102.307 361.487 102.92 361.58 103.6H359.08C358.987 103.12 358.753 102.74 358.38 102.46C358.007 102.18 357.56 102.04 357.04 102.04C356.547 102.04 356.127 102.167 355.78 102.42C355.447 102.673 355.193 102.993 355.02 103.38C354.847 103.767 354.76 104.18 354.76 104.62C354.76 105.02 354.84 105.42 355 105.82C355.16 106.22 355.407 106.553 355.74 106.82C356.073 107.073 356.487 107.2 356.98 107.2C357.487 107.2 357.92 107.087 358.28 106.86C358.653 106.62 358.907 106.287 359.04 105.86H361.5C361.367 106.513 361.087 107.093 360.66 107.6C360.247 108.093 359.713 108.487 359.06 108.78C358.42 109.06 357.693 109.2 356.88 109.2ZM367.145 109.2C366.319 109.2 365.572 108.987 364.905 108.56C364.252 108.133 363.732 107.567 363.345 106.86C362.972 106.153 362.785 105.4 362.785 104.6C362.785 103.787 362.972 103.033 363.345 102.34C363.732 101.647 364.252 101.08 364.905 100.64C365.572 100.2 366.319 99.98 367.145 99.98C367.759 99.98 368.332 100.1 368.865 100.34C369.412 100.567 369.879 100.92 370.265 101.4V100.2H372.725V109H370.265V107.8C370.039 108.107 369.759 108.367 369.425 108.58C369.092 108.78 368.725 108.933 368.325 109.04C367.939 109.147 367.545 109.2 367.145 109.2ZM367.825 107.14C368.292 107.14 368.705 107.02 369.065 106.78C369.439 106.54 369.732 106.227 369.945 105.84C370.159 105.453 370.265 105.04 370.265 104.6C370.265 104.147 370.159 103.733 369.945 103.36C369.732 102.973 369.439 102.66 369.065 102.42C368.705 102.18 368.292 102.06 367.825 102.06C367.359 102.06 366.939 102.18 366.565 102.42C366.205 102.66 365.919 102.973 365.705 103.36C365.492 103.733 365.385 104.147 365.385 104.6C365.385 105.04 365.492 105.453 365.705 105.84C365.919 106.227 366.205 106.54 366.565 106.78C366.939 107.02 367.359 107.14 367.825 107.14ZM379.059 109.2C378.232 109.2 377.485 108.987 376.819 108.56C376.165 108.133 375.652 107.567 375.279 106.86C374.905 106.153 374.719 105.4 374.719 104.6C374.719 103.787 374.905 103.033 375.279 102.34C375.652 101.647 376.165 101.08 376.819 100.64C377.485 100.2 378.232 99.98 379.059 99.98C379.672 99.98 380.252 100.093 380.799 100.32C381.345 100.547 381.805 100.907 382.179 101.4V94H384.639V109H382.179V107.8C381.965 108.107 381.692 108.367 381.359 108.58C381.025 108.78 380.659 108.933 380.259 109.04C379.872 109.147 379.472 109.2 379.059 109.2ZM379.739 107.14C380.205 107.14 380.619 107.02 380.979 106.78C381.352 106.54 381.645 106.227 381.859 105.84C382.072 105.453 382.179 105.04 382.179 104.6C382.179 104.147 382.072 103.733 381.859 103.36C381.645 102.973 381.352 102.66 380.979 102.42C380.619 102.18 380.205 102.06 379.739 102.06C379.272 102.06 378.859 102.18 378.499 102.42C378.139 102.66 377.852 102.973 377.639 103.36C377.425 103.733 377.319 104.147 377.319 104.6C377.319 105.04 377.425 105.453 377.639 105.84C377.852 106.227 378.139 106.54 378.499 106.78C378.859 107.02 379.272 107.14 379.739 107.14ZM391.672 109.18C390.712 109.18 389.852 108.993 389.092 108.62C388.332 108.233 387.732 107.7 387.292 107.02C386.865 106.327 386.652 105.513 386.652 104.58C386.652 103.687 386.865 102.893 387.292 102.2C387.732 101.507 388.325 100.967 389.072 100.58C389.819 100.18 390.665 99.98 391.612 99.98C392.479 99.98 393.272 100.173 393.992 100.56C394.725 100.947 395.312 101.487 395.752 102.18C396.192 102.873 396.412 103.673 396.412 104.58V105.14H388.652V103.56H393.992C393.939 103.027 393.692 102.587 393.252 102.24C392.825 101.893 392.292 101.72 391.652 101.72C391.119 101.72 390.665 101.833 390.292 102.06C389.932 102.273 389.652 102.58 389.452 102.98C389.265 103.38 389.172 103.847 389.172 104.38C389.172 104.98 389.279 105.5 389.492 105.94C389.705 106.38 389.992 106.72 390.352 106.96C390.725 107.2 391.132 107.32 391.572 107.32C391.985 107.32 392.365 107.273 392.712 107.18C393.072 107.073 393.385 106.94 393.652 106.78C393.932 106.607 394.152 106.42 394.312 106.22L395.792 107.48C395.525 107.8 395.172 108.093 394.732 108.36C394.305 108.613 393.825 108.813 393.292 108.96C392.772 109.107 392.232 109.18 391.672 109.18ZM398.383 108.98V100.18H400.863V101.36C401.156 100.947 401.51 100.613 401.923 100.36C402.336 100.107 402.81 99.98 403.343 99.98C403.943 99.98 404.476 100.107 404.943 100.36C405.423 100.613 405.81 101.007 406.103 101.54C406.476 101.007 406.903 100.613 407.383 100.36C407.876 100.107 408.456 99.98 409.123 99.98C409.87 99.98 410.483 100.153 410.963 100.5C411.456 100.833 411.823 101.3 412.063 101.9C412.316 102.487 412.443 103.153 412.443 103.9V108.98H409.983V103.9C409.983 103.567 409.936 103.26 409.843 102.98C409.75 102.7 409.596 102.48 409.383 102.32C409.183 102.147 408.896 102.06 408.523 102.06C408.15 102.06 407.823 102.167 407.543 102.38C407.276 102.58 407.07 102.84 406.923 103.16C406.776 103.48 406.703 103.813 406.703 104.16V108.98H404.243V103.9C404.243 103.567 404.196 103.26 404.103 102.98C404.01 102.7 403.856 102.48 403.643 102.32C403.443 102.147 403.156 102.06 402.783 102.06C402.396 102.06 402.056 102.193 401.763 102.46C401.483 102.713 401.263 103.033 401.103 103.42C400.956 103.793 400.876 104.173 400.863 104.56V108.98H398.383ZM415.39 114L417.53 108.94L413.77 100.18H416.33L418.79 106.08L421.03 100.18H423.59L418.03 114H415.39Z" fill="#2672FF"/>
</svg>
